<svg xmlns="http://www.w3.org/2000/svg" width="68" height="68" viewBox="0 0 68 68" fill="none">
  <circle cx="4" cy="4" r="1.2" fill="#F5F0EB" opacity="0.8"/>
  <circle cx="4" cy="12" r="1.2" fill="#F5F0EB" opacity="0.8"/>
  <circle cx="4" cy="20" r="1.2" fill="#F5F0EB" opacity="0.8"/>
  <circle cx="4" cy="28" r="1.2" fill="#F5F0EB" opacity="0.8"/>
  <circle cx="4" cy="36" r="1.2" fill="#F5F0EB" opacity="0.8"/>
  <circle cx="4" cy="44" r="1.2" fill="#F5F0EB" opacity="0.8"/>
  <circle cx="4" cy="52" r="1.2" fill="#F5F0EB" opacity="0.8"/>
  <circle cx="4" cy="60" r="1.2" fill="#F5F0EB" opacity="0.8"/>
  <circle cx="12" cy="4" r="1.2" fill="#F5F0EB" opacity="0.8"/>
  <circle cx="12" cy="12" r="1.2" fill="#F5F0EB" opacity="0.8"/>
  <circle cx="12" cy="20" r="1.2" fill="#F5F0EB" opacity="0.8"/>
  <circle cx="12" cy="28" r="1.2" fill="#F5F0EB" opacity="0.8"/>
  <circle cx="12" cy="36" r="1.2" fill="#F5F0EB" opacity="0.8"/>
  <circle cx="12" cy="44" r="1.2" fill="#F5F0EB" opacity="0.8"/>
  <circle cx="12" cy="52" r="1.2" fill="#F5F0EB" opacity="0.8"/>
  <circle cx="12" cy="60" r="1.2" fill="#F5F0EB" opacity="0.8"/>
  <circle cx="20" cy="4" r="1.2" fill="#F5F0EB" opacity="0.8"/>
  <circle cx="20" cy="12" r="1.2" fill="#F5F0EB" opacity="0.8"/>
  <circle cx="20" cy="20" r="1.2" fill="#F5F0EB" opacity="0.8"/>
  <circle cx="20" cy="28" r="1.2" fill="#F5F0EB" opacity="0.8"/>
  <circle cx="20" cy="36" r="1.2" fill="#F5F0EB" opacity="0.8"/>
  <circle cx="20" cy="44" r="1.2" fill="#F5F0EB" opacity="0.8"/>
  <circle cx="20" cy="52" r="1.2" fill="#F5F0EB" opacity="0.8"/>
  <circle cx="20" cy="60" r="1.2" fill="#F5F0EB" opacity="0.8"/>
  <circle cx="28" cy="4" r="1.2" fill="#F5F0EB" opacity="0.8"/>
  <circle cx="28" cy="12" r="1.2" fill="#F5F0EB" opacity="0.8"/>
  <circle cx="28" cy="20" r="1.2" fill="#F5F0EB" opacity="0.8"/>
  <circle cx="28" cy="28" r="1.2" fill="#F5F0EB" opacity="0.8"/>
  <circle cx="28" cy="36" r="1.2" fill="#F5F0EB" opacity="0.8"/>
  <circle cx="28" cy="44" r="1.2" fill="#F5F0EB" opacity="0.8"/>
  <circle cx="28" cy="52" r="1.2" fill="#F5F0EB" opacity="0.8"/>
  <circle cx="28" cy="60" r="1.2" fill="#F5F0EB" opacity="0.8"/>
  <circle cx="36" cy="4" r="1.2" fill="#F5F0EB" opacity="0.8"/>
  <circle cx="36" cy="12" r="1.2" fill="#F5F0EB" opacity="0.8"/>
  <circle cx="36" cy="20" r="1.2" fill="#F5F0EB" opacity="0.8"/>
  <circle cx="36" cy="28" r="1.2" fill="#F5F0EB" opacity="0.8"/>
  <circle cx="36" cy="36" r="1.2" fill="#F5F0EB" opacity="0.8"/>
  <circle cx="36" cy="44" r="1.2" fill="#F5F0EB" opacity="0.8"/>
  <circle cx="36" cy="52" r="1.2" fill="#F5F0EB" opacity="0.8"/>
  <circle cx="36" cy="60" r="1.2" fill="#F5F0EB" opacity="0.8"/>
  <circle cx="44" cy="4" r="1.2" fill="#F5F0EB" opacity="0.8"/>
  <circle cx="44" cy="12" r="1.2" fill="#F5F0EB" opacity="0.8"/>
  <circle cx="44" cy="20" r="1.2" fill="#F5F0EB" opacity="0.8"/>
  <circle cx="44" cy="28" r="1.2" fill="#F5F0EB" opacity="0.8"/>
  <circle cx="44" cy="36" r="1.2" fill="#F5F0EB" opacity="0.8"/>
  <circle cx="44" cy="44" r="1.2" fill="#F5F0EB" opacity="0.8"/>
  <circle cx="44" cy="52" r="1.2" fill="#F5F0EB" opacity="0.8"/>
  <circle cx="44" cy="60" r="1.2" fill="#F5F0EB" opacity="0.8"/>
  <circle cx="52" cy="4" r="1.2" fill="#F5F0EB" opacity="0.8"/>
  <circle cx="52" cy="12" r="1.2" fill="#F5F0EB" opacity="0.8"/>
  <circle cx="52" cy="20" r="1.2" fill="#F5F0EB" opacity="0.8"/>
  <circle cx="52" cy="28" r="1.2" fill="#F5F0EB" opacity="0.8"/>
  <circle cx="52" cy="36" r="1.2" fill="#F5F0EB" opacity="0.8"/>
  <circle cx="52" cy="44" r="1.2" fill="#F5F0EB" opacity="0.8"/>
  <circle cx="52" cy="52" r="1.2" fill="#F5F0EB" opacity="0.8"/>
  <circle cx="52" cy="60" r="1.2" fill="#F5F0EB" opacity="0.8"/>
  <circle cx="60" cy="4" r="1.2" fill="#F5F0EB" opacity="0.8"/>
  <circle cx="60" cy="12" r="1.2" fill="#F5F0EB" opacity="0.8"/>
  <circle cx="60" cy="20" r="1.2" fill="#F5F0EB" opacity="0.8"/>
  <circle cx="60" cy="28" r="1.2" fill="#F5F0EB" opacity="0.8"/>
  <circle cx="60" cy="36" r="1.2" fill="#F5F0EB" opacity="0.8"/>
  <circle cx="60" cy="44" r="1.2" fill="#F5F0EB" opacity="0.8"/>
  <circle cx="60" cy="52" r="1.2" fill="#F5F0EB" opacity="0.8"/>
  <circle cx="60" cy="60" r="1.2" fill="#F5F0EB" opacity="0.8"/>
</svg>