<svg xmlns="http://www.w3.org/2000/svg" width="200" height="200" viewBox="0 0 200 200" fill="none">
  <path d="M4,4 C20,4 40,8 60,4" stroke="#F5F0EB" stroke-width="1.5" stroke-linecap="round" stroke-linejoin="round" opacity="1.0"/>
  <path d="M4,4 C4,20 8,40 4,60" stroke="#F5F0EB" stroke-width="1.5" stroke-linecap="round" stroke-linejoin="round" opacity="1.0"/>
  <path d="M196,4 C180,4 160,8 140,4" stroke="#F5F0EB" stroke-width="1.5" stroke-linecap="round" stroke-linejoin="round" opacity="1.0"/>
  <path d="M196,4 C196,20 192,40 196,60" stroke="#F5F0EB" stroke-width="1.5" stroke-linecap="round" stroke-linejoin="round" opacity="1.0"/>
  <path d="M4,196 C20,196 40,192 60,196" stroke="#F5F0EB" stroke-width="1.5" stroke-linecap="round" stroke-linejoin="round" opacity="1.0"/>
  <path d="M4,196 C4,180 8,160 4,140" stroke="#F5F0EB" stroke-width="1.5" stroke-linecap="round" stroke-linejoin="round" opacity="1.0"/>
  <path d="M196,196 C180,196 160,192 140,196" stroke="#F5F0EB" stroke-width="1.5" stroke-linecap="round" stroke-linejoin="round" opacity="1.0"/>
  <path d="M196,196 C196,180 192,160 196,140" stroke="#F5F0EB" stroke-width="1.5" stroke-linecap="round" stroke-linejoin="round" opacity="1.0"/>
</svg>