<svg xmlns="http://www.w3.org/2000/svg" width="1440" height="960" viewBox="0 0 1440 960" fill="none">
  <path d="M205,895 C901,102 1077,932 935,15" stroke="#F5F0EB" stroke-width="0.3" stroke-linecap="round" stroke-linejoin="round" opacity="0.08"/>
  <path d="M839,891 C1340,158 153,480 542,346" stroke="#F5F0EB" stroke-width="0.3" stroke-linecap="round" stroke-linejoin="round" opacity="0.07"/>
  <path d="M814,665 C164,872 672,872 1381,879" stroke="#F5F0EB" stroke-width="0.3" stroke-linecap="round" stroke-linejoin="round" opacity="0.07"/>
  <path d="M648,641 C999,893 1108,36 1264,70" stroke="#F5F0EB" stroke-width="0.3" stroke-linecap="round" stroke-linejoin="round" opacity="0.05"/>
  <path d="M1401,943 C588,232 185,444 201,778" stroke="#F5F0EB" stroke-width="0.3" stroke-linecap="round" stroke-linejoin="round" opacity="0.07"/>
  <path d="M205,454 C340,710 613,925 59,47" stroke="#F5F0EB" stroke-width="0.3" stroke-linecap="round" stroke-linejoin="round" opacity="0.05"/>
  <path d="M114,300 C734,383 882,149 500,543" stroke="#F5F0EB" stroke-width="0.3" stroke-linecap="round" stroke-linejoin="round" opacity="0.06"/>
  <path d="M1396,811 C368,174 358,80 1248,891" stroke="#F5F0EB" stroke-width="0.3" stroke-linecap="round" stroke-linejoin="round" opacity="0.06"/>
  <path d="M1399,246 C1019,934 1194,146 475,472" stroke="#F5F0EB" stroke-width="0.3" stroke-linecap="round" stroke-linejoin="round" opacity="0.07"/>
  <path d="M941,261 C1365,9 952,922 589,693" stroke="#F5F0EB" stroke-width="0.3" stroke-linecap="round" stroke-linejoin="round" opacity="0.07"/>
  <path d="M151,452 C707,601 612,654 868,706" stroke="#F5F0EB" stroke-width="0.3" stroke-linecap="round" stroke-linejoin="round" opacity="0.05"/>
  <path d="M618,203 C787,873 989,109 485,390" stroke="#F5F0EB" stroke-width="0.3" stroke-linecap="round" stroke-linejoin="round" opacity="0.07"/>
  <path d="M1177,302 C1432,302 44,849 1348,405" stroke="#F5F0EB" stroke-width="0.3" stroke-linecap="round" stroke-linejoin="round" opacity="0.05"/>
  <path d="M1159,885 C1404,796 100,932 1241,763" stroke="#F5F0EB" stroke-width="0.3" stroke-linecap="round" stroke-linejoin="round" opacity="0.06"/>
  <path d="M586,794 C471,621 721,224 1303,194" stroke="#F5F0EB" stroke-width="0.3" stroke-linecap="round" stroke-linejoin="round" opacity="0.07"/>
  <path d="M1388,773 C1350,697 280,643 198,925" stroke="#F5F0EB" stroke-width="0.3" stroke-linecap="round" stroke-linejoin="round" opacity="0.07"/>
  <path d="M80,316 C902,34 1186,373 269,92" stroke="#F5F0EB" stroke-width="0.3" stroke-linecap="round" stroke-linejoin="round" opacity="0.09"/>
  <path d="M669,765 C850,179 411,135 1104,897" stroke="#F5F0EB" stroke-width="0.3" stroke-linecap="round" stroke-linejoin="round" opacity="0.1"/>
  <path d="M1087,513 C558,850 336,263 986,825" stroke="#F5F0EB" stroke-width="0.3" stroke-linecap="round" stroke-linejoin="round" opacity="0.05"/>
  <path d="M693,823 C235,479 154,144 462,880" stroke="#F5F0EB" stroke-width="0.3" stroke-linecap="round" stroke-linejoin="round" opacity="0.08"/>
  <path d="M1381,406 C1141,374 184,809 808,14" stroke="#F5F0EB" stroke-width="0.3" stroke-linecap="round" stroke-linejoin="round" opacity="0.05"/>
  <path d="M253,465 C754,688 1376,268 1197,390" stroke="#F5F0EB" stroke-width="0.3" stroke-linecap="round" stroke-linejoin="round" opacity="0.09"/>
  <path d="M760,110 C1382,239 965,25 1268,905" stroke="#F5F0EB" stroke-width="0.3" stroke-linecap="round" stroke-linejoin="round" opacity="0.1"/>
  <path d="M671,937 C1249,226 1326,64 1301,843" stroke="#F5F0EB" stroke-width="0.3" stroke-linecap="round" stroke-linejoin="round" opacity="0.06"/>
  <path d="M1435,309 C1329,418 238,143 92,38" stroke="#F5F0EB" stroke-width="0.3" stroke-linecap="round" stroke-linejoin="round" opacity="0.05"/>
  <path d="M1008,118 C199,240 1100,138 795,464" stroke="#F5F0EB" stroke-width="0.3" stroke-linecap="round" stroke-linejoin="round" opacity="0.06"/>
  <path d="M1426,553 C858,601 316,906 849,670" stroke="#F5F0EB" stroke-width="0.3" stroke-linecap="round" stroke-linejoin="round" opacity="0.04"/>
  <path d="M1002,630 C835,286 67,706 758,222" stroke="#F5F0EB" stroke-width="0.3" stroke-linecap="round" stroke-linejoin="round" opacity="0.06"/>
  <path d="M483,875 C742,101 1404,376 1115,923" stroke="#F5F0EB" stroke-width="0.3" stroke-linecap="round" stroke-linejoin="round" opacity="0.1"/>
  <path d="M734,62 C815,282 388,125 931,93" stroke="#F5F0EB" stroke-width="0.3" stroke-linecap="round" stroke-linejoin="round" opacity="0.08"/>
  <path d="M1314,654 C1222,21 103,805 683,249" stroke="#F5F0EB" stroke-width="0.3" stroke-linecap="round" stroke-linejoin="round" opacity="0.1"/>
  <path d="M1156,210 C140,849 1135,212 1200,221" stroke="#F5F0EB" stroke-width="0.3" stroke-linecap="round" stroke-linejoin="round" opacity="0.09"/>
  <path d="M477,336 C302,807 1220,2 567,879" stroke="#F5F0EB" stroke-width="0.3" stroke-linecap="round" stroke-linejoin="round" opacity="0.1"/>
  <path d="M266,553 C513,817 357,112 1353,887" stroke="#F5F0EB" stroke-width="0.3" stroke-linecap="round" stroke-linejoin="round" opacity="0.03"/>
  <path d="M30,366 C487,602 663,16 356,271" stroke="#F5F0EB" stroke-width="0.3" stroke-linecap="round" stroke-linejoin="round" opacity="0.03"/>
  <path d="M862,538 C232,763 130,487 918,796" stroke="#F5F0EB" stroke-width="0.3" stroke-linecap="round" stroke-linejoin="round" opacity="0.06"/>
  <path d="M1215,111 C925,515 453,629 88,744" stroke="#F5F0EB" stroke-width="0.3" stroke-linecap="round" stroke-linejoin="round" opacity="0.08"/>
  <path d="M1349,533 C617,469 1317,31 124,490" stroke="#F5F0EB" stroke-width="0.3" stroke-linecap="round" stroke-linejoin="round" opacity="0.09"/>
  <path d="M873,702 C221,502 908,75 165,329" stroke="#F5F0EB" stroke-width="0.3" stroke-linecap="round" stroke-linejoin="round" opacity="0.07"/>
  <path d="M134,129 C563,639 1296,599 1123,729" stroke="#F5F0EB" stroke-width="0.3" stroke-linecap="round" stroke-linejoin="round" opacity="0.05"/>
  <path d="M1223,543 C603,464 1035,619 881,101" stroke="#F5F0EB" stroke-width="0.3" stroke-linecap="round" stroke-linejoin="round" opacity="0.09"/>
  <path d="M234,873 C1340,666 1129,738 440,440" stroke="#F5F0EB" stroke-width="0.3" stroke-linecap="round" stroke-linejoin="round" opacity="0.06"/>
  <path d="M467,423 C694,847 928,408 851,747" stroke="#F5F0EB" stroke-width="0.3" stroke-linecap="round" stroke-linejoin="round" opacity="0.04"/>
  <path d="M874,320 C1362,261 766,156 1406,945" stroke="#F5F0EB" stroke-width="0.3" stroke-linecap="round" stroke-linejoin="round" opacity="0.06"/>
  <path d="M186,851 C174,95 884,98 763,831" stroke="#F5F0EB" stroke-width="0.3" stroke-linecap="round" stroke-linejoin="round" opacity="0.04"/>
  <path d="M122,600 C1150,575 675,686 250,420" stroke="#F5F0EB" stroke-width="0.3" stroke-linecap="round" stroke-linejoin="round" opacity="0.05"/>
  <path d="M1362,768 C866,888 105,294 1229,319" stroke="#F5F0EB" stroke-width="0.3" stroke-linecap="round" stroke-linejoin="round" opacity="0.05"/>
  <path d="M1183,519 C435,158 1344,493 459,867" stroke="#F5F0EB" stroke-width="0.3" stroke-linecap="round" stroke-linejoin="round" opacity="0.04"/>
  <path d="M1139,376 C235,780 570,587 463,826" stroke="#F5F0EB" stroke-width="0.3" stroke-linecap="round" stroke-linejoin="round" opacity="0.06"/>
  <path d="M1148,785 C1273,628 1382,658 1140,26" stroke="#F5F0EB" stroke-width="0.3" stroke-linecap="round" stroke-linejoin="round" opacity="0.07"/>
  <path d="M1347,849 C1420,273 59,184 559,719" stroke="#F5F0EB" stroke-width="0.3" stroke-linecap="round" stroke-linejoin="round" opacity="0.08"/>
  <path d="M695,359 C12,185 293,579 1346,410" stroke="#F5F0EB" stroke-width="0.3" stroke-linecap="round" stroke-linejoin="round" opacity="0.03"/>
  <path d="M1296,31 C187,764 1086,220 770,429" stroke="#F5F0EB" stroke-width="0.3" stroke-linecap="round" stroke-linejoin="round" opacity="0.06"/>
  <path d="M322,378 C638,738 664,795 1162,610" stroke="#F5F0EB" stroke-width="0.3" stroke-linecap="round" stroke-linejoin="round" opacity="0.04"/>
  <path d="M107,159 C322,772 1265,50 1380,83" stroke="#F5F0EB" stroke-width="0.3" stroke-linecap="round" stroke-linejoin="round" opacity="0.05"/>
  <path d="M1355,434 C994,621 905,424 559,220" stroke="#F5F0EB" stroke-width="0.3" stroke-linecap="round" stroke-linejoin="round" opacity="0.08"/>
  <path d="M233,353 C880,113 580,694 1389,607" stroke="#F5F0EB" stroke-width="0.3" stroke-linecap="round" stroke-linejoin="round" opacity="0.06"/>
  <path d="M1366,315 C93,225 809,613 112,7" stroke="#F5F0EB" stroke-width="0.3" stroke-linecap="round" stroke-linejoin="round" opacity="0.04"/>
  <path d="M432,785 C281,782 523,296 671,122" stroke="#F5F0EB" stroke-width="0.3" stroke-linecap="round" stroke-linejoin="round" opacity="0.03"/>
  <path d="M881,179 C264,389 1090,720 471,512" stroke="#F5F0EB" stroke-width="0.3" stroke-linecap="round" stroke-linejoin="round" opacity="0.07"/>
</svg>