<svg xmlns="http://www.w3.org/2000/svg" width="400" height="400" viewBox="0 0 400 400" fill="none">
  <circle cx="342" cy="181" r="0.2" fill="#F5F0EB" opacity="0.18"/>
  <circle cx="21" cy="223" r="0.2" fill="#F5F0EB" opacity="0.19"/>
  <circle cx="160" cy="294" r="0.5" fill="#F5F0EB" opacity="0.11"/>
  <circle cx="327" cy="213" r="0.4" fill="#F5F0EB" opacity="0.11"/>
  <circle cx="166" cy="87" r="0.7" fill="#F5F0EB" opacity="0.14"/>
  <circle cx="353" cy="185" r="0.3" fill="#F5F0EB" opacity="0.18"/>
  <circle cx="124" cy="223" r="0.6" fill="#F5F0EB" opacity="0.13"/>
  <circle cx="202" cy="158" r="0.6" fill="#F5F0EB" opacity="0.08"/>
  <circle cx="398" cy="86" r="0.2" fill="#F5F0EB" opacity="0.14"/>
  <circle cx="271" cy="261" r="0.3" fill="#F5F0EB" opacity="0.17"/>
  <circle cx="179" cy="372" r="0.8" fill="#F5F0EB" opacity="0.15"/>
  <circle cx="75" cy="120" r="0.3" fill="#F5F0EB" opacity="0.09"/>
  <circle cx="88" cy="308" r="0.3" fill="#F5F0EB" opacity="0.16"/>
  <circle cx="38" cy="90" r="0.8" fill="#F5F0EB" opacity="0.14"/>
  <circle cx="237" cy="386" r="0.5" fill="#F5F0EB" opacity="0.14"/>
  <circle cx="348" cy="289" r="0.6" fill="#F5F0EB" opacity="0.20"/>
  <circle cx="165" cy="321" r="0.4" fill="#F5F0EB" opacity="0.12"/>
  <circle cx="240" cy="226" r="0.6" fill="#F5F0EB" opacity="0.17"/>
  <circle cx="302" cy="28" r="0.4" fill="#F5F0EB" opacity="0.06"/>
  <circle cx="236" cy="231" r="0.2" fill="#F5F0EB" opacity="0.11"/>
  <circle cx="146" cy="39" r="0.6" fill="#F5F0EB" opacity="0.20"/>
  <circle cx="46" cy="314" r="0.6" fill="#F5F0EB" opacity="0.11"/>
  <circle cx="297" cy="283" r="0.8" fill="#F5F0EB" opacity="0.16"/>
  <circle cx="21" cy="230" r="0.7" fill="#F5F0EB" opacity="0.14"/>
  <circle cx="96" cy="164" r="0.6" fill="#F5F0EB" opacity="0.13"/>
  <circle cx="31" cy="230" r="0.3" fill="#F5F0EB" opacity="0.18"/>
  <circle cx="175" cy="365" r="0.3" fill="#F5F0EB" opacity="0.15"/>
  <circle cx="20" cy="126" r="0.6" fill="#F5F0EB" opacity="0.20"/>
  <circle cx="268" cy="267" r="0.6" fill="#F5F0EB" opacity="0.10"/>
  <circle cx="144" cy="198" r="0.4" fill="#F5F0EB" opacity="0.10"/>
  <circle cx="306" cy="26" r="0.7" fill="#F5F0EB" opacity="0.15"/>
  <circle cx="33" cy="168" r="0.3" fill="#F5F0EB" opacity="0.15"/>
  <circle cx="145" cy="129" r="0.6" fill="#F5F0EB" opacity="0.15"/>
  <circle cx="308" cy="76" r="0.4" fill="#F5F0EB" opacity="0.14"/>
  <circle cx="72" cy="179" r="0.4" fill="#F5F0EB" opacity="0.15"/>
  <circle cx="339" cy="200" r="0.3" fill="#F5F0EB" opacity="0.16"/>
  <circle cx="43" cy="158" r="0.5" fill="#F5F0EB" opacity="0.15"/>
  <circle cx="168" cy="65" r="0.6" fill="#F5F0EB" opacity="0.17"/>
  <circle cx="378" cy="350" r="0.7" fill="#F5F0EB" opacity="0.06"/>
  <circle cx="343" cy="216" r="0.5" fill="#F5F0EB" opacity="0.05"/>
  <circle cx="158" cy="92" r="0.8" fill="#F5F0EB" opacity="0.10"/>
  <circle cx="392" cy="248" r="0.3" fill="#F5F0EB" opacity="0.20"/>
  <circle cx="79" cy="39" r="0.4" fill="#F5F0EB" opacity="0.17"/>
  <circle cx="259" cy="394" r="0.5" fill="#F5F0EB" opacity="0.16"/>
  <circle cx="269" cy="19" r="0.6" fill="#F5F0EB" opacity="0.18"/>
  <circle cx="316" cy="67" r="0.6" fill="#F5F0EB" opacity="0.07"/>
  <circle cx="92" cy="354" r="0.7" fill="#F5F0EB" opacity="0.17"/>
  <circle cx="84" cy="369" r="0.5" fill="#F5F0EB" opacity="0.11"/>
  <circle cx="346" cy="368" r="0.3" fill="#F5F0EB" opacity="0.12"/>
  <circle cx="145" cy="385" r="0.6" fill="#F5F0EB" opacity="0.12"/>
  <circle cx="273" cy="122" r="0.4" fill="#F5F0EB" opacity="0.17"/>
  <circle cx="240" cy="99" r="0.4" fill="#F5F0EB" opacity="0.19"/>
  <circle cx="225" cy="236" r="0.7" fill="#F5F0EB" opacity="0.17"/>
  <circle cx="257" cy="270" r="0.5" fill="#F5F0EB" opacity="0.07"/>
  <circle cx="102" cy="309" r="0.3" fill="#F5F0EB" opacity="0.09"/>
  <circle cx="328" cy="246" r="0.7" fill="#F5F0EB" opacity="0.13"/>
  <circle cx="52" cy="364" r="0.7" fill="#F5F0EB" opacity="0.18"/>
  <circle cx="145" cy="42" r="0.7" fill="#F5F0EB" opacity="0.09"/>
  <circle cx="262" cy="75" r="0.7" fill="#F5F0EB" opacity="0.06"/>
  <circle cx="113" cy="230" r="0.7" fill="#F5F0EB" opacity="0.19"/>
  <circle cx="212" cy="27" r="0.4" fill="#F5F0EB" opacity="0.11"/>
  <circle cx="197" cy="41" r="0.4" fill="#F5F0EB" opacity="0.05"/>
  <circle cx="50" cy="365" r="0.6" fill="#F5F0EB" opacity="0.17"/>
  <circle cx="70" cy="19" r="0.4" fill="#F5F0EB" opacity="0.17"/>
  <circle cx="356" cy="71" r="0.7" fill="#F5F0EB" opacity="0.12"/>
  <circle cx="315" cy="2" r="0.7" fill="#F5F0EB" opacity="0.05"/>
  <circle cx="110" cy="76" r="0.5" fill="#F5F0EB" opacity="0.16"/>
  <circle cx="270" cy="216" r="0.3" fill="#F5F0EB" opacity="0.09"/>
  <circle cx="154" cy="62" r="0.2" fill="#F5F0EB" opacity="0.11"/>
  <circle cx="318" cy="234" r="0.2" fill="#F5F0EB" opacity="0.18"/>
  <circle cx="255" cy="305" r="0.5" fill="#F5F0EB" opacity="0.14"/>
  <circle cx="294" cy="123" r="0.6" fill="#F5F0EB" opacity="0.09"/>
  <circle cx="0" cy="314" r="0.4" fill="#F5F0EB" opacity="0.14"/>
  <circle cx="95" cy="340" r="0.6" fill="#F5F0EB" opacity="0.13"/>
  <circle cx="184" cy="34" r="0.8" fill="#F5F0EB" opacity="0.13"/>
  <circle cx="259" cy="283" r="0.2" fill="#F5F0EB" opacity="0.18"/>
  <circle cx="22" cy="325" r="0.4" fill="#F5F0EB" opacity="0.11"/>
  <circle cx="382" cy="8" r="0.4" fill="#F5F0EB" opacity="0.06"/>
  <circle cx="123" cy="375" r="0.6" fill="#F5F0EB" opacity="0.07"/>
  <circle cx="297" cy="376" r="0.7" fill="#F5F0EB" opacity="0.07"/>
  <circle cx="180" cy="279" r="0.4" fill="#F5F0EB" opacity="0.15"/>
  <circle cx="398" cy="350" r="0.5" fill="#F5F0EB" opacity="0.15"/>
  <circle cx="323" cy="93" r="0.7" fill="#F5F0EB" opacity="0.06"/>
  <circle cx="397" cy="234" r="0.2" fill="#F5F0EB" opacity="0.08"/>
  <circle cx="102" cy="21" r="0.4" fill="#F5F0EB" opacity="0.10"/>
  <circle cx="203" cy="278" r="0.5" fill="#F5F0EB" opacity="0.06"/>
  <circle cx="331" cy="97" r="0.4" fill="#F5F0EB" opacity="0.18"/>
  <circle cx="24" cy="335" r="0.4" fill="#F5F0EB" opacity="0.07"/>
  <circle cx="188" cy="223" r="0.7" fill="#F5F0EB" opacity="0.16"/>
  <circle cx="197" cy="173" r="0.8" fill="#F5F0EB" opacity="0.12"/>
  <circle cx="254" cy="188" r="0.8" fill="#F5F0EB" opacity="0.13"/>
  <circle cx="42" cy="372" r="0.5" fill="#F5F0EB" opacity="0.11"/>
  <circle cx="92" cy="279" r="0.4" fill="#F5F0EB" opacity="0.07"/>
  <circle cx="167" cy="338" r="0.4" fill="#F5F0EB" opacity="0.12"/>
  <circle cx="367" cy="218" r="0.3" fill="#F5F0EB" opacity="0.12"/>
  <circle cx="228" cy="21" r="0.6" fill="#F5F0EB" opacity="0.19"/>
  <circle cx="314" cy="222" r="0.4" fill="#F5F0EB" opacity="0.20"/>
  <circle cx="29" cy="38" r="0.6" fill="#F5F0EB" opacity="0.11"/>
  <circle cx="262" cy="383" r="0.6" fill="#F5F0EB" opacity="0.19"/>
  <circle cx="73" cy="311" r="0.6" fill="#F5F0EB" opacity="0.12"/>
  <circle cx="64" cy="34" r="0.3" fill="#F5F0EB" opacity="0.15"/>
  <circle cx="185" cy="196" r="0.8" fill="#F5F0EB" opacity="0.05"/>
  <circle cx="78" cy="347" r="0.5" fill="#F5F0EB" opacity="0.11"/>
  <circle cx="227" cy="390" r="0.2" fill="#F5F0EB" opacity="0.07"/>
  <circle cx="187" cy="203" r="0.4" fill="#F5F0EB" opacity="0.09"/>
  <circle cx="58" cy="13" r="0.6" fill="#F5F0EB" opacity="0.12"/>
  <circle cx="198" cy="287" r="0.3" fill="#F5F0EB" opacity="0.17"/>
  <circle cx="360" cy="228" r="0.3" fill="#F5F0EB" opacity="0.14"/>
  <circle cx="355" cy="251" r="0.3" fill="#F5F0EB" opacity="0.07"/>
  <circle cx="37" cy="231" r="0.3" fill="#F5F0EB" opacity="0.16"/>
  <circle cx="44" cy="349" r="0.8" fill="#F5F0EB" opacity="0.20"/>
  <circle cx="341" cy="177" r="0.6" fill="#F5F0EB" opacity="0.13"/>
  <circle cx="148" cy="153" r="0.7" fill="#F5F0EB" opacity="0.16"/>
  <circle cx="358" cy="326" r="0.3" fill="#F5F0EB" opacity="0.10"/>
  <circle cx="114" cy="62" r="0.8" fill="#F5F0EB" opacity="0.17"/>
  <circle cx="121" cy="252" r="0.2" fill="#F5F0EB" opacity="0.13"/>
  <circle cx="188" cy="239" r="0.7" fill="#F5F0EB" opacity="0.13"/>
  <circle cx="313" cy="44" r="0.2" fill="#F5F0EB" opacity="0.11"/>
  <circle cx="367" cy="368" r="0.5" fill="#F5F0EB" opacity="0.11"/>
  <circle cx="209" cy="294" r="0.2" fill="#F5F0EB" opacity="0.20"/>
  <circle cx="328" cy="37" r="0.5" fill="#F5F0EB" opacity="0.15"/>
  <circle cx="176" cy="65" r="0.7" fill="#F5F0EB" opacity="0.17"/>
  <circle cx="327" cy="300" r="0.3" fill="#F5F0EB" opacity="0.19"/>
  <circle cx="221" cy="257" r="0.7" fill="#F5F0EB" opacity="0.06"/>
  <circle cx="63" cy="265" r="0.3" fill="#F5F0EB" opacity="0.07"/>
  <circle cx="165" cy="363" r="0.3" fill="#F5F0EB" opacity="0.19"/>
  <circle cx="265" cy="145" r="0.7" fill="#F5F0EB" opacity="0.09"/>
  <circle cx="325" cy="282" r="0.4" fill="#F5F0EB" opacity="0.14"/>
  <circle cx="314" cy="273" r="0.3" fill="#F5F0EB" opacity="0.15"/>
  <circle cx="303" cy="297" r="0.3" fill="#F5F0EB" opacity="0.15"/>
  <circle cx="368" cy="309" r="0.4" fill="#F5F0EB" opacity="0.19"/>
  <circle cx="21" cy="14" r="0.2" fill="#F5F0EB" opacity="0.19"/>
  <circle cx="394" cy="295" r="0.4" fill="#F5F0EB" opacity="0.08"/>
  <circle cx="292" cy="213" r="0.6" fill="#F5F0EB" opacity="0.05"/>
  <circle cx="321" cy="279" r="0.4" fill="#F5F0EB" opacity="0.19"/>
  <circle cx="247" cy="125" r="0.7" fill="#F5F0EB" opacity="0.15"/>
  <circle cx="152" cy="232" r="0.2" fill="#F5F0EB" opacity="0.06"/>
  <circle cx="225" cy="212" r="0.5" fill="#F5F0EB" opacity="0.08"/>
  <circle cx="310" cy="73" r="0.4" fill="#F5F0EB" opacity="0.16"/>
  <circle cx="375" cy="176" r="0.8" fill="#F5F0EB" opacity="0.07"/>
  <circle cx="189" cy="263" r="0.5" fill="#F5F0EB" opacity="0.10"/>
  <circle cx="238" cy="62" r="0.4" fill="#F5F0EB" opacity="0.09"/>
  <circle cx="49" cy="25" r="0.4" fill="#F5F0EB" opacity="0.11"/>
  <circle cx="315" cy="214" r="0.3" fill="#F5F0EB" opacity="0.18"/>
  <circle cx="81" cy="167" r="0.8" fill="#F5F0EB" opacity="0.16"/>
  <circle cx="97" cy="390" r="0.3" fill="#F5F0EB" opacity="0.20"/>
  <circle cx="239" cy="255" r="0.7" fill="#F5F0EB" opacity="0.12"/>
  <circle cx="46" cy="201" r="0.5" fill="#F5F0EB" opacity="0.20"/>
  <circle cx="110" cy="298" r="0.4" fill="#F5F0EB" opacity="0.06"/>
  <circle cx="253" cy="305" r="0.7" fill="#F5F0EB" opacity="0.15"/>
  <circle cx="240" cy="146" r="0.5" fill="#F5F0EB" opacity="0.18"/>
  <circle cx="220" cy="68" r="0.7" fill="#F5F0EB" opacity="0.16"/>
  <circle cx="391" cy="206" r="0.4" fill="#F5F0EB" opacity="0.11"/>
  <circle cx="291" cy="287" r="0.3" fill="#F5F0EB" opacity="0.13"/>
  <circle cx="37" cy="197" r="0.5" fill="#F5F0EB" opacity="0.16"/>
  <circle cx="143" cy="319" r="0.6" fill="#F5F0EB" opacity="0.07"/>
  <circle cx="49" cy="201" r="0.4" fill="#F5F0EB" opacity="0.20"/>
  <circle cx="285" cy="187" r="0.7" fill="#F5F0EB" opacity="0.08"/>
  <circle cx="260" cy="205" r="0.5" fill="#F5F0EB" opacity="0.06"/>
  <circle cx="70" cy="365" r="0.4" fill="#F5F0EB" opacity="0.12"/>
  <circle cx="233" cy="76" r="0.6" fill="#F5F0EB" opacity="0.13"/>
  <circle cx="167" cy="313" r="0.4" fill="#F5F0EB" opacity="0.11"/>
  <circle cx="315" cy="378" r="0.7" fill="#F5F0EB" opacity="0.14"/>
  <circle cx="259" cy="260" r="0.5" fill="#F5F0EB" opacity="0.16"/>
  <circle cx="153" cy="243" r="0.7" fill="#F5F0EB" opacity="0.11"/>
  <circle cx="344" cy="56" r="0.8" fill="#F5F0EB" opacity="0.14"/>
  <circle cx="371" cy="352" r="0.6" fill="#F5F0EB" opacity="0.14"/>
  <circle cx="135" cy="335" r="0.7" fill="#F5F0EB" opacity="0.17"/>
  <circle cx="295" cy="116" r="0.6" fill="#F5F0EB" opacity="0.14"/>
  <circle cx="87" cy="268" r="0.6" fill="#F5F0EB" opacity="0.14"/>
  <circle cx="194" cy="75" r="0.7" fill="#F5F0EB" opacity="0.09"/>
  <circle cx="293" cy="358" r="0.3" fill="#F5F0EB" opacity="0.05"/>
  <circle cx="160" cy="214" r="0.3" fill="#F5F0EB" opacity="0.15"/>
  <circle cx="210" cy="256" r="0.7" fill="#F5F0EB" opacity="0.19"/>
  <circle cx="376" cy="372" r="0.2" fill="#F5F0EB" opacity="0.07"/>
  <circle cx="106" cy="287" r="0.4" fill="#F5F0EB" opacity="0.15"/>
  <circle cx="269" cy="192" r="0.4" fill="#F5F0EB" opacity="0.08"/>
  <circle cx="272" cy="175" r="0.5" fill="#F5F0EB" opacity="0.15"/>
  <circle cx="369" cy="348" r="0.6" fill="#F5F0EB" opacity="0.15"/>
  <circle cx="312" cy="247" r="0.3" fill="#F5F0EB" opacity="0.09"/>
  <circle cx="285" cy="152" r="0.3" fill="#F5F0EB" opacity="0.20"/>
  <circle cx="152" cy="394" r="0.4" fill="#F5F0EB" opacity="0.08"/>
  <circle cx="360" cy="250" r="0.4" fill="#F5F0EB" opacity="0.10"/>
  <circle cx="369" cy="140" r="0.4" fill="#F5F0EB" opacity="0.14"/>
  <circle cx="278" cy="194" r="0.7" fill="#F5F0EB" opacity="0.11"/>
  <circle cx="176" cy="395" r="0.7" fill="#F5F0EB" opacity="0.09"/>
  <circle cx="147" cy="365" r="0.2" fill="#F5F0EB" opacity="0.19"/>
  <circle cx="335" cy="131" r="0.6" fill="#F5F0EB" opacity="0.08"/>
  <circle cx="275" cy="138" r="0.8" fill="#F5F0EB" opacity="0.15"/>
  <circle cx="70" cy="55" r="0.6" fill="#F5F0EB" opacity="0.14"/>
  <circle cx="124" cy="25" r="0.6" fill="#F5F0EB" opacity="0.13"/>
  <circle cx="326" cy="119" r="0.2" fill="#F5F0EB" opacity="0.11"/>
  <circle cx="367" cy="241" r="0.3" fill="#F5F0EB" opacity="0.17"/>
  <circle cx="2" cy="281" r="0.8" fill="#F5F0EB" opacity="0.07"/>
  <circle cx="334" cy="243" r="0.5" fill="#F5F0EB" opacity="0.08"/>
  <circle cx="147" cy="164" r="0.4" fill="#F5F0EB" opacity="0.06"/>
  <circle cx="393" cy="45" r="0.6" fill="#F5F0EB" opacity="0.08"/>
  <circle cx="378" cy="370" r="0.7" fill="#F5F0EB" opacity="0.06"/>
  <circle cx="89" cy="213" r="0.7" fill="#F5F0EB" opacity="0.08"/>
  <circle cx="18" cy="203" r="0.7" fill="#F5F0EB" opacity="0.08"/>
  <circle cx="383" cy="148" r="0.7" fill="#F5F0EB" opacity="0.05"/>
  <circle cx="290" cy="308" r="0.3" fill="#F5F0EB" opacity="0.20"/>
  <circle cx="145" cy="232" r="0.8" fill="#F5F0EB" opacity="0.13"/>
  <circle cx="252" cy="68" r="0.7" fill="#F5F0EB" opacity="0.12"/>
  <circle cx="98" cy="57" r="0.4" fill="#F5F0EB" opacity="0.16"/>
  <circle cx="331" cy="131" r="0.6" fill="#F5F0EB" opacity="0.05"/>
  <circle cx="172" cy="151" r="0.5" fill="#F5F0EB" opacity="0.16"/>
  <circle cx="89" cy="312" r="0.7" fill="#F5F0EB" opacity="0.18"/>
  <circle cx="218" cy="263" r="0.4" fill="#F5F0EB" opacity="0.11"/>
  <circle cx="48" cy="94" r="0.8" fill="#F5F0EB" opacity="0.12"/>
  <circle cx="127" cy="3" r="0.4" fill="#F5F0EB" opacity="0.09"/>
  <circle cx="385" cy="136" r="0.8" fill="#F5F0EB" opacity="0.10"/>
  <circle cx="370" cy="293" r="0.2" fill="#F5F0EB" opacity="0.15"/>
  <circle cx="354" cy="120" r="0.2" fill="#F5F0EB" opacity="0.07"/>
  <circle cx="157" cy="81" r="0.4" fill="#F5F0EB" opacity="0.13"/>
  <circle cx="360" cy="394" r="0.4" fill="#F5F0EB" opacity="0.07"/>
  <circle cx="151" cy="188" r="0.6" fill="#F5F0EB" opacity="0.08"/>
  <circle cx="68" cy="244" r="0.3" fill="#F5F0EB" opacity="0.16"/>
  <circle cx="310" cy="191" r="0.4" fill="#F5F0EB" opacity="0.13"/>
  <circle cx="241" cy="387" r="0.5" fill="#F5F0EB" opacity="0.15"/>
  <circle cx="111" cy="390" r="0.3" fill="#F5F0EB" opacity="0.16"/>
  <circle cx="41" cy="269" r="0.5" fill="#F5F0EB" opacity="0.16"/>
  <circle cx="39" cy="288" r="0.3" fill="#F5F0EB" opacity="0.17"/>
  <circle cx="258" cy="103" r="0.5" fill="#F5F0EB" opacity="0.07"/>
  <circle cx="167" cy="266" r="0.5" fill="#F5F0EB" opacity="0.15"/>
  <circle cx="367" cy="298" r="0.5" fill="#F5F0EB" opacity="0.18"/>
  <circle cx="228" cy="28" r="0.5" fill="#F5F0EB" opacity="0.13"/>
  <circle cx="233" cy="288" r="0.2" fill="#F5F0EB" opacity="0.12"/>
  <circle cx="157" cy="370" r="0.2" fill="#F5F0EB" opacity="0.09"/>
  <circle cx="1" cy="381" r="0.3" fill="#F5F0EB" opacity="0.06"/>
  <circle cx="216" cy="176" r="0.6" fill="#F5F0EB" opacity="0.13"/>
  <circle cx="30" cy="35" r="0.8" fill="#F5F0EB" opacity="0.12"/>
  <circle cx="146" cy="209" r="0.3" fill="#F5F0EB" opacity="0.07"/>
  <circle cx="328" cy="373" r="0.6" fill="#F5F0EB" opacity="0.11"/>
  <circle cx="195" cy="229" r="0.7" fill="#F5F0EB" opacity="0.19"/>
  <circle cx="192" cy="41" r="0.6" fill="#F5F0EB" opacity="0.15"/>
  <circle cx="276" cy="68" r="0.6" fill="#F5F0EB" opacity="0.10"/>
  <circle cx="91" cy="275" r="0.4" fill="#F5F0EB" opacity="0.07"/>
  <circle cx="114" cy="1" r="0.7" fill="#F5F0EB" opacity="0.20"/>
  <circle cx="237" cy="344" r="0.6" fill="#F5F0EB" opacity="0.11"/>
  <circle cx="194" cy="117" r="0.3" fill="#F5F0EB" opacity="0.10"/>
  <circle cx="141" cy="96" r="0.8" fill="#F5F0EB" opacity="0.16"/>
  <circle cx="57" cy="16" r="0.7" fill="#F5F0EB" opacity="0.11"/>
  <circle cx="392" cy="8" r="0.3" fill="#F5F0EB" opacity="0.06"/>
  <circle cx="304" cy="17" r="0.5" fill="#F5F0EB" opacity="0.15"/>
  <circle cx="24" cy="125" r="0.6" fill="#F5F0EB" opacity="0.11"/>
  <circle cx="119" cy="276" r="0.3" fill="#F5F0EB" opacity="0.18"/>
  <circle cx="28" cy="71" r="0.5" fill="#F5F0EB" opacity="0.09"/>
  <circle cx="374" cy="294" r="0.4" fill="#F5F0EB" opacity="0.14"/>
  <circle cx="344" cy="164" r="0.3" fill="#F5F0EB" opacity="0.18"/>
  <circle cx="338" cy="266" r="0.3" fill="#F5F0EB" opacity="0.10"/>
  <circle cx="31" cy="285" r="0.8" fill="#F5F0EB" opacity="0.18"/>
  <circle cx="89" cy="320" r="0.6" fill="#F5F0EB" opacity="0.13"/>
  <circle cx="24" cy="176" r="0.8" fill="#F5F0EB" opacity="0.15"/>
  <circle cx="268" cy="163" r="0.6" fill="#F5F0EB" opacity="0.11"/>
  <circle cx="153" cy="192" r="0.3" fill="#F5F0EB" opacity="0.13"/>
  <circle cx="123" cy="115" r="0.4" fill="#F5F0EB" opacity="0.16"/>
  <circle cx="237" cy="29" r="0.5" fill="#F5F0EB" opacity="0.20"/>
  <circle cx="285" cy="271" r="0.3" fill="#F5F0EB" opacity="0.09"/>
  <circle cx="104" cy="169" r="0.6" fill="#F5F0EB" opacity="0.19"/>
  <circle cx="189" cy="47" r="0.5" fill="#F5F0EB" opacity="0.17"/>
  <circle cx="26" cy="137" r="0.4" fill="#F5F0EB" opacity="0.14"/>
  <circle cx="20" cy="37" r="0.3" fill="#F5F0EB" opacity="0.16"/>
  <circle cx="370" cy="343" r="0.5" fill="#F5F0EB" opacity="0.12"/>
  <circle cx="170" cy="155" r="0.8" fill="#F5F0EB" opacity="0.05"/>
  <circle cx="97" cy="379" r="0.3" fill="#F5F0EB" opacity="0.20"/>
  <circle cx="245" cy="124" r="0.6" fill="#F5F0EB" opacity="0.16"/>
  <circle cx="203" cy="122" r="0.5" fill="#F5F0EB" opacity="0.17"/>
  <circle cx="194" cy="238" r="0.5" fill="#F5F0EB" opacity="0.10"/>
  <circle cx="133" cy="184" r="0.5" fill="#F5F0EB" opacity="0.12"/>
  <circle cx="50" cy="369" r="0.5" fill="#F5F0EB" opacity="0.18"/>
  <circle cx="104" cy="189" r="0.4" fill="#F5F0EB" opacity="0.06"/>
  <circle cx="113" cy="379" r="0.3" fill="#F5F0EB" opacity="0.09"/>
  <circle cx="299" cy="296" r="0.6" fill="#F5F0EB" opacity="0.09"/>
  <circle cx="100" cy="168" r="0.3" fill="#F5F0EB" opacity="0.14"/>
  <circle cx="125" cy="255" r="0.5" fill="#F5F0EB" opacity="0.19"/>
  <circle cx="172" cy="131" r="0.7" fill="#F5F0EB" opacity="0.12"/>
  <circle cx="370" cy="328" r="0.6" fill="#F5F0EB" opacity="0.12"/>
  <circle cx="375" cy="180" r="0.3" fill="#F5F0EB" opacity="0.16"/>
  <circle cx="250" cy="94" r="0.8" fill="#F5F0EB" opacity="0.13"/>
  <circle cx="328" cy="30" r="0.5" fill="#F5F0EB" opacity="0.18"/>
  <circle cx="38" cy="342" r="0.2" fill="#F5F0EB" opacity="0.05"/>
  <circle cx="70" cy="322" r="0.3" fill="#F5F0EB" opacity="0.16"/>
  <circle cx="4" cy="111" r="0.5" fill="#F5F0EB" opacity="0.11"/>
  <circle cx="316" cy="326" r="0.6" fill="#F5F0EB" opacity="0.14"/>
  <circle cx="247" cy="337" r="0.5" fill="#F5F0EB" opacity="0.05"/>
  <circle cx="282" cy="210" r="0.2" fill="#F5F0EB" opacity="0.13"/>
  <circle cx="140" cy="274" r="0.8" fill="#F5F0EB" opacity="0.05"/>
  <circle cx="357" cy="345" r="0.5" fill="#F5F0EB" opacity="0.19"/>
  <circle cx="91" cy="54" r="0.8" fill="#F5F0EB" opacity="0.13"/>
  <circle cx="123" cy="98" r="0.6" fill="#F5F0EB" opacity="0.09"/>
  <circle cx="181" cy="136" r="0.7" fill="#F5F0EB" opacity="0.06"/>
  <circle cx="207" cy="235" r="0.5" fill="#F5F0EB" opacity="0.20"/>
  <circle cx="115" cy="153" r="0.6" fill="#F5F0EB" opacity="0.18"/>
  <circle cx="334" cy="332" r="0.7" fill="#F5F0EB" opacity="0.06"/>
  <circle cx="194" cy="193" r="0.5" fill="#F5F0EB" opacity="0.06"/>
  <circle cx="4" cy="359" r="0.3" fill="#F5F0EB" opacity="0.12"/>
  <circle cx="222" cy="330" r="0.7" fill="#F5F0EB" opacity="0.13"/>
  <circle cx="48" cy="270" r="0.8" fill="#F5F0EB" opacity="0.08"/>
  <circle cx="354" cy="290" r="0.5" fill="#F5F0EB" opacity="0.06"/>
  <circle cx="38" cy="350" r="0.8" fill="#F5F0EB" opacity="0.18"/>
  <circle cx="288" cy="336" r="0.2" fill="#F5F0EB" opacity="0.19"/>
  <circle cx="161" cy="8" r="0.8" fill="#F5F0EB" opacity="0.14"/>
  <circle cx="385" cy="364" r="0.7" fill="#F5F0EB" opacity="0.19"/>
  <circle cx="153" cy="83" r="0.5" fill="#F5F0EB" opacity="0.14"/>
  <circle cx="199" cy="346" r="0.7" fill="#F5F0EB" opacity="0.10"/>
  <circle cx="386" cy="378" r="0.3" fill="#F5F0EB" opacity="0.20"/>
  <circle cx="370" cy="40" r="0.5" fill="#F5F0EB" opacity="0.20"/>
  <circle cx="27" cy="50" r="0.5" fill="#F5F0EB" opacity="0.18"/>
  <circle cx="174" cy="309" r="0.7" fill="#F5F0EB" opacity="0.19"/>
  <circle cx="203" cy="396" r="0.4" fill="#F5F0EB" opacity="0.15"/>
  <circle cx="230" cy="251" r="0.3" fill="#F5F0EB" opacity="0.13"/>
  <circle cx="192" cy="221" r="0.3" fill="#F5F0EB" opacity="0.14"/>
  <circle cx="194" cy="43" r="0.7" fill="#F5F0EB" opacity="0.09"/>
  <circle cx="126" cy="365" r="0.2" fill="#F5F0EB" opacity="0.09"/>
  <circle cx="194" cy="364" r="0.7" fill="#F5F0EB" opacity="0.07"/>
  <circle cx="199" cy="162" r="0.4" fill="#F5F0EB" opacity="0.06"/>
  <circle cx="157" cy="227" r="0.4" fill="#F5F0EB" opacity="0.09"/>
  <circle cx="67" cy="44" r="0.3" fill="#F5F0EB" opacity="0.12"/>
  <circle cx="284" cy="262" r="0.4" fill="#F5F0EB" opacity="0.05"/>
  <circle cx="181" cy="283" r="0.3" fill="#F5F0EB" opacity="0.14"/>
  <circle cx="166" cy="197" r="0.2" fill="#F5F0EB" opacity="0.11"/>
  <circle cx="398" cy="43" r="0.6" fill="#F5F0EB" opacity="0.13"/>
  <circle cx="124" cy="292" r="0.5" fill="#F5F0EB" opacity="0.15"/>
  <circle cx="86" cy="71" r="0.4" fill="#F5F0EB" opacity="0.09"/>
  <circle cx="74" cy="32" r="0.3" fill="#F5F0EB" opacity="0.09"/>
  <circle cx="153" cy="247" r="0.7" fill="#F5F0EB" opacity="0.10"/>
  <circle cx="126" cy="369" r="0.6" fill="#F5F0EB" opacity="0.14"/>
  <circle cx="100" cy="234" r="0.3" fill="#F5F0EB" opacity="0.10"/>
  <circle cx="202" cy="170" r="0.7" fill="#F5F0EB" opacity="0.11"/>
  <circle cx="168" cy="225" r="0.4" fill="#F5F0EB" opacity="0.17"/>
  <circle cx="333" cy="304" r="0.3" fill="#F5F0EB" opacity="0.10"/>
  <circle cx="355" cy="102" r="0.5" fill="#F5F0EB" opacity="0.08"/>
  <circle cx="203" cy="163" r="0.4" fill="#F5F0EB" opacity="0.15"/>
  <circle cx="251" cy="294" r="0.7" fill="#F5F0EB" opacity="0.10"/>
  <circle cx="143" cy="201" r="0.4" fill="#F5F0EB" opacity="0.19"/>
  <circle cx="102" cy="303" r="0.8" fill="#F5F0EB" opacity="0.08"/>
  <circle cx="393" cy="281" r="0.2" fill="#F5F0EB" opacity="0.16"/>
  <circle cx="362" cy="107" r="0.5" fill="#F5F0EB" opacity="0.09"/>
  <circle cx="354" cy="35" r="0.7" fill="#F5F0EB" opacity="0.17"/>
  <circle cx="209" cy="344" r="0.5" fill="#F5F0EB" opacity="0.15"/>
  <circle cx="123" cy="129" r="0.6" fill="#F5F0EB" opacity="0.16"/>
  <circle cx="193" cy="37" r="0.5" fill="#F5F0EB" opacity="0.14"/>
  <circle cx="298" cy="205" r="0.5" fill="#F5F0EB" opacity="0.19"/>
  <circle cx="354" cy="214" r="0.5" fill="#F5F0EB" opacity="0.17"/>
  <circle cx="184" cy="359" r="0.7" fill="#F5F0EB" opacity="0.13"/>
  <circle cx="326" cy="43" r="0.3" fill="#F5F0EB" opacity="0.09"/>
  <circle cx="340" cy="181" r="0.3" fill="#F5F0EB" opacity="0.14"/>
  <circle cx="288" cy="330" r="0.6" fill="#F5F0EB" opacity="0.11"/>
  <circle cx="385" cy="169" r="0.8" fill="#F5F0EB" opacity="0.11"/>
  <circle cx="5" cy="50" r="0.4" fill="#F5F0EB" opacity="0.13"/>
  <circle cx="265" cy="285" r="0.5" fill="#F5F0EB" opacity="0.14"/>
  <circle cx="228" cy="191" r="0.4" fill="#F5F0EB" opacity="0.17"/>
  <circle cx="301" cy="353" r="0.5" fill="#F5F0EB" opacity="0.10"/>
  <circle cx="12" cy="247" r="0.3" fill="#F5F0EB" opacity="0.11"/>
  <circle cx="43" cy="59" r="0.7" fill="#F5F0EB" opacity="0.16"/>
  <circle cx="178" cy="159" r="0.4" fill="#F5F0EB" opacity="0.17"/>
  <circle cx="266" cy="247" r="0.4" fill="#F5F0EB" opacity="0.06"/>
  <circle cx="369" cy="356" r="0.5" fill="#F5F0EB" opacity="0.06"/>
  <circle cx="22" cy="363" r="0.3" fill="#F5F0EB" opacity="0.18"/>
  <circle cx="331" cy="55" r="0.6" fill="#F5F0EB" opacity="0.07"/>
  <circle cx="379" cy="124" r="0.5" fill="#F5F0EB" opacity="0.13"/>
  <circle cx="169" cy="286" r="0.5" fill="#F5F0EB" opacity="0.12"/>
  <circle cx="207" cy="322" r="0.3" fill="#F5F0EB" opacity="0.15"/>
  <circle cx="221" cy="202" r="0.2" fill="#F5F0EB" opacity="0.14"/>
  <circle cx="101" cy="230" r="0.6" fill="#F5F0EB" opacity="0.11"/>
  <circle cx="360" cy="109" r="0.3" fill="#F5F0EB" opacity="0.16"/>
  <circle cx="32" cy="295" r="0.3" fill="#F5F0EB" opacity="0.18"/>
  <circle cx="95" cy="187" r="0.4" fill="#F5F0EB" opacity="0.12"/>
  <circle cx="134" cy="343" r="0.7" fill="#F5F0EB" opacity="0.13"/>
  <circle cx="327" cy="160" r="0.6" fill="#F5F0EB" opacity="0.14"/>
  <circle cx="300" cy="58" r="0.4" fill="#F5F0EB" opacity="0.18"/>
  <circle cx="316" cy="88" r="0.7" fill="#F5F0EB" opacity="0.16"/>
  <circle cx="152" cy="314" r="0.6" fill="#F5F0EB" opacity="0.15"/>
  <circle cx="160" cy="60" r="0.3" fill="#F5F0EB" opacity="0.07"/>
  <circle cx="191" cy="355" r="0.3" fill="#F5F0EB" opacity="0.11"/>
  <circle cx="305" cy="70" r="0.5" fill="#F5F0EB" opacity="0.11"/>
  <circle cx="249" cy="325" r="0.5" fill="#F5F0EB" opacity="0.19"/>
  <circle cx="88" cy="284" r="0.3" fill="#F5F0EB" opacity="0.09"/>
  <circle cx="95" cy="161" r="0.7" fill="#F5F0EB" opacity="0.14"/>
  <circle cx="183" cy="4" r="0.5" fill="#F5F0EB" opacity="0.08"/>
  <circle cx="196" cy="287" r="0.5" fill="#F5F0EB" opacity="0.12"/>
  <circle cx="350" cy="251" r="0.4" fill="#F5F0EB" opacity="0.18"/>
  <circle cx="250" cy="85" r="0.2" fill="#F5F0EB" opacity="0.05"/>
  <circle cx="389" cy="112" r="0.4" fill="#F5F0EB" opacity="0.09"/>
  <circle cx="275" cy="147" r="0.3" fill="#F5F0EB" opacity="0.12"/>
  <circle cx="380" cy="395" r="0.7" fill="#F5F0EB" opacity="0.13"/>
  <circle cx="57" cy="293" r="0.3" fill="#F5F0EB" opacity="0.17"/>
  <circle cx="187" cy="277" r="0.7" fill="#F5F0EB" opacity="0.06"/>
  <circle cx="368" cy="225" r="0.5" fill="#F5F0EB" opacity="0.20"/>
  <circle cx="52" cy="376" r="0.7" fill="#F5F0EB" opacity="0.16"/>
  <circle cx="152" cy="16" r="0.5" fill="#F5F0EB" opacity="0.10"/>
  <circle cx="44" cy="224" r="0.7" fill="#F5F0EB" opacity="0.07"/>
  <circle cx="121" cy="107" r="0.7" fill="#F5F0EB" opacity="0.14"/>
  <circle cx="179" cy="363" r="0.6" fill="#F5F0EB" opacity="0.11"/>
  <circle cx="315" cy="71" r="0.7" fill="#F5F0EB" opacity="0.17"/>
  <circle cx="30" cy="291" r="0.4" fill="#F5F0EB" opacity="0.09"/>
  <circle cx="275" cy="86" r="0.4" fill="#F5F0EB" opacity="0.16"/>
  <circle cx="148" cy="293" r="0.4" fill="#F5F0EB" opacity="0.18"/>
  <circle cx="347" cy="48" r="0.3" fill="#F5F0EB" opacity="0.16"/>
</svg>