<svg xmlns="http://www.w3.org/2000/svg" width="800" height="600" viewBox="0 0 800 600" fill="none">
  <path d="M0,1 C115,-2 667,-6 800,-3" stroke="#F5F0EB" stroke-width="0.4" stroke-linecap="round" stroke-linejoin="round" opacity="0.06"/>
  <path d="M0,60 C163,62 625,54 800,64" stroke="#F5F0EB" stroke-width="0.4" stroke-linecap="round" stroke-linejoin="round" opacity="0.09"/>
  <path d="M0,125 C206,122 615,112 800,125" stroke="#F5F0EB" stroke-width="0.4" stroke-linecap="round" stroke-linejoin="round" opacity="0.1"/>
  <path d="M0,176 C203,186 691,178 800,180" stroke="#F5F0EB" stroke-width="0.4" stroke-linecap="round" stroke-linejoin="round" opacity="0.08"/>
  <path d="M0,242 C183,248 500,232 800,242" stroke="#F5F0EB" stroke-width="0.4" stroke-linecap="round" stroke-linejoin="round" opacity="0.09"/>
  <path d="M0,300 C116,307 601,296 800,301" stroke="#F5F0EB" stroke-width="0.4" stroke-linecap="round" stroke-linejoin="round" opacity="0.11"/>
  <path d="M0,362 C168,360 572,360 800,363" stroke="#F5F0EB" stroke-width="0.4" stroke-linecap="round" stroke-linejoin="round" opacity="0.09"/>
  <path d="M0,424 C224,420 674,411 800,415" stroke="#F5F0EB" stroke-width="0.4" stroke-linecap="round" stroke-linejoin="round" opacity="0.05"/>
  <path d="M0,482 C104,473 540,484 800,482" stroke="#F5F0EB" stroke-width="0.4" stroke-linecap="round" stroke-linejoin="round" opacity="0.04"/>
  <path d="M0,541 C151,534 666,539 800,537" stroke="#F5F0EB" stroke-width="0.4" stroke-linecap="round" stroke-linejoin="round" opacity="0.11"/>
</svg>