<svg xmlns="http://www.w3.org/2000/svg" width="200" height="160" viewBox="0 0 200 160" fill="none">
  <path d="M100,20 L100,140" stroke="#F5F0EB" stroke-width="1.5" stroke-linecap="round" stroke-linejoin="round" opacity="1.0"/>
  <path d="M100,20 C80,18 30,16 14,24 C10,26 10,30 14,130 C30,140 80,138 100,140" stroke="#F5F0EB" stroke-width="1.5" stroke-linecap="round" stroke-linejoin="round" opacity="1.0"/>
  <path d="M100,20 C120,18 170,16 186,24 C190,26 190,30 186,130 C170,140 120,138 100,140" stroke="#F5F0EB" stroke-width="1.5" stroke-linecap="round" stroke-linejoin="round" opacity="1.0"/>
  <path d="M24,50 L88,50" stroke="#F5F0EB" stroke-width="0.8" stroke-linecap="round" stroke-linejoin="round" opacity="0.5"/>
  <path d="M24,65 L88,65" stroke="#F5F0EB" stroke-width="0.8" stroke-linecap="round" stroke-linejoin="round" opacity="0.5"/>
  <path d="M24,80 L88,80" stroke="#F5F0EB" stroke-width="0.8" stroke-linecap="round" stroke-linejoin="round" opacity="0.5"/>
  <path d="M112,50 L176,50" stroke="#F5F0EB" stroke-width="0.8" stroke-linecap="round" stroke-linejoin="round" opacity="0.5"/>
  <path d="M112,65 L176,65" stroke="#F5F0EB" stroke-width="0.8" stroke-linecap="round" stroke-linejoin="round" opacity="0.5"/>
  <path d="M112,80 L176,80" stroke="#F5F0EB" stroke-width="0.8" stroke-linecap="round" stroke-linejoin="round" opacity="0.5"/>
</svg>