<svg xmlns="http://www.w3.org/2000/svg" width="100" height="120" viewBox="0 0 100 120" fill="none">
  <path d="M50,10 C50,10 50,10 50,10 M50,10 C35,10 28,22 28,38 C28,58 18,68 14,72 L86,72 C82,68 72,58 72,38 C72,22 65,10 50,10" stroke="#F5F0EB" stroke-width="1.5" stroke-linecap="round" stroke-linejoin="round" opacity="1.0"/>
  <path d="M40,76 C40,84 44,90 50,90 C56,90 60,84 60,76" stroke="#F5F0EB" stroke-width="1.5" stroke-linecap="round" stroke-linejoin="round" opacity="1.0"/>
  <path d="M46,10 C46,6 54,6 54,10" stroke="#F5F0EB" stroke-width="1.2" stroke-linecap="round" stroke-linejoin="round" opacity="1.0"/>
</svg>