<svg xmlns="http://www.w3.org/2000/svg" width="180" height="120" viewBox="0 0 180 120" fill="none">
  <path d="M20,20 C20,12 26,8 36,8 L144,8 C154,8 160,12 160,20 L160,100 C160,108 154,112 144,112 L36,112 C26,112 20,108 20,100 Z" stroke="#F5F0EB" stroke-width="1.5" stroke-linecap="round" stroke-linejoin="round" opacity="1.0"/>
  <path d="M40,36 L140,36" stroke="#F5F0EB" stroke-width="0.8" stroke-linecap="round" stroke-linejoin="round" opacity="0.5"/>
  <path d="M40,52 L140,52" stroke="#F5F0EB" stroke-width="0.8" stroke-linecap="round" stroke-linejoin="round" opacity="0.5"/>
  <path d="M60,70 C75,64 105,64 120,70 C115,78 80,82 60,70" stroke="#F5F0EB" stroke-width="1.0" stroke-linecap="round" stroke-linejoin="round" opacity="0.6"/>
  <path d="M90,88 C98,82 108,84 110,92 C112,100 106,108 96,108 C86,108 80,100 84,92 C86,86 90,84 90,88" stroke="#F5F0EB" stroke-width="1.0" stroke-linecap="round" stroke-linejoin="round" opacity="1.0"/>
</svg>