<svg xmlns="http://www.w3.org/2000/svg" width="120" height="120" viewBox="0 0 120 120" fill="none">
  <line x1="73.2" y1="60.0" x2="114.0" y2="59.2" stroke="#F5F0EB" stroke-width="1.5" stroke-linecap="round"/>
  <line x1="72.9" y1="65.4" x2="109.9" y2="80.7" stroke="#F5F0EB" stroke-width="1.5" stroke-linecap="round"/>
  <line x1="70.7" y1="69.9" x2="98.2" y2="99.0" stroke="#F5F0EB" stroke-width="1.5" stroke-linecap="round"/>
  <line x1="64.6" y1="72.9" x2="80.7" y2="109.1" stroke="#F5F0EB" stroke-width="1.5" stroke-linecap="round"/>
  <line x1="60.0" y1="74.0" x2="60.0" y2="114.0" stroke="#F5F0EB" stroke-width="1.5" stroke-linecap="round"/>
  <line x1="55.4" y1="72.9" x2="39.3" y2="110.7" stroke="#F5F0EB" stroke-width="1.5" stroke-linecap="round"/>
  <line x1="49.3" y1="69.9" x2="21.8" y2="97.4" stroke="#F5F0EB" stroke-width="1.5" stroke-linecap="round"/>
  <line x1="47.1" y1="65.4" x2="10.1" y2="80.7" stroke="#F5F0EB" stroke-width="1.5" stroke-linecap="round"/>
  <line x1="46.8" y1="60.0" x2="6.0" y2="60.8" stroke="#F5F0EB" stroke-width="1.5" stroke-linecap="round"/>
  <line x1="46.3" y1="54.6" x2="10.1" y2="38.5" stroke="#F5F0EB" stroke-width="1.5" stroke-linecap="round"/>
  <line x1="50.1" y1="50.1" x2="21.8" y2="21.8" stroke="#F5F0EB" stroke-width="1.5" stroke-linecap="round"/>
  <line x1="55.4" y1="47.1" x2="39.3" y2="10.9" stroke="#F5F0EB" stroke-width="1.5" stroke-linecap="round"/>
  <line x1="59.2" y1="46.0" x2="60.0" y2="5.2" stroke="#F5F0EB" stroke-width="1.5" stroke-linecap="round"/>
  <line x1="65.4" y1="47.1" x2="80.7" y2="10.1" stroke="#F5F0EB" stroke-width="1.5" stroke-linecap="round"/>
  <line x1="70.7" y1="50.1" x2="98.2" y2="22.6" stroke="#F5F0EB" stroke-width="1.5" stroke-linecap="round"/>
  <line x1="72.1" y1="54.6" x2="109.9" y2="38.5" stroke="#F5F0EB" stroke-width="1.5" stroke-linecap="round"/>
</svg>