<svg xmlns="http://www.w3.org/2000/svg" width="100" height="100" viewBox="0 0 100 100" fill="none">
  <line x1="49.2" y1="50.0" x2="94.0" y2="49.2" stroke="#F5F0EB" stroke-width="1.5" stroke-linecap="round"/>
  <line x1="50.0" y1="50.0" x2="91.8" y2="63.6" stroke="#F5F0EB" stroke-width="1.5" stroke-linecap="round"/>
  <line x1="50.8" y1="50.0" x2="85.6" y2="76.7" stroke="#F5F0EB" stroke-width="1.5" stroke-linecap="round"/>
  <line x1="49.2" y1="50.0" x2="75.9" y2="84.8" stroke="#F5F0EB" stroke-width="1.5" stroke-linecap="round"/>
  <line x1="50.0" y1="50.0" x2="63.6" y2="91.8" stroke="#F5F0EB" stroke-width="1.5" stroke-linecap="round"/>
  <line x1="50.8" y1="50.0" x2="50.0" y2="94.8" stroke="#F5F0EB" stroke-width="1.5" stroke-linecap="round"/>
  <line x1="49.2" y1="50.0" x2="36.4" y2="91.0" stroke="#F5F0EB" stroke-width="1.5" stroke-linecap="round"/>
  <line x1="50.0" y1="50.0" x2="24.1" y2="85.6" stroke="#F5F0EB" stroke-width="1.5" stroke-linecap="round"/>
  <line x1="50.8" y1="50.0" x2="14.4" y2="76.7" stroke="#F5F0EB" stroke-width="1.5" stroke-linecap="round"/>
  <line x1="49.2" y1="50.0" x2="8.2" y2="62.8" stroke="#F5F0EB" stroke-width="1.5" stroke-linecap="round"/>
  <line x1="50.0" y1="50.0" x2="6.0" y2="50.0" stroke="#F5F0EB" stroke-width="1.5" stroke-linecap="round"/>
  <line x1="50.8" y1="50.0" x2="8.2" y2="37.2" stroke="#F5F0EB" stroke-width="1.5" stroke-linecap="round"/>
  <line x1="49.2" y1="50.0" x2="14.4" y2="23.3" stroke="#F5F0EB" stroke-width="1.5" stroke-linecap="round"/>
  <line x1="50.0" y1="50.0" x2="24.1" y2="14.4" stroke="#F5F0EB" stroke-width="1.5" stroke-linecap="round"/>
  <line x1="50.8" y1="50.0" x2="36.4" y2="9.0" stroke="#F5F0EB" stroke-width="1.5" stroke-linecap="round"/>
  <line x1="49.2" y1="50.0" x2="50.0" y2="5.2" stroke="#F5F0EB" stroke-width="1.5" stroke-linecap="round"/>
  <line x1="50.0" y1="50.0" x2="63.6" y2="8.2" stroke="#F5F0EB" stroke-width="1.5" stroke-linecap="round"/>
  <line x1="50.8" y1="50.0" x2="75.9" y2="15.2" stroke="#F5F0EB" stroke-width="1.5" stroke-linecap="round"/>
  <line x1="49.2" y1="50.0" x2="85.6" y2="23.3" stroke="#F5F0EB" stroke-width="1.5" stroke-linecap="round"/>
  <line x1="50.0" y1="50.0" x2="91.8" y2="36.4" stroke="#F5F0EB" stroke-width="1.5" stroke-linecap="round"/>
</svg>