<svg xmlns="http://www.w3.org/2000/svg" width="100" height="100" viewBox="0 0 100 100" fill="none">
  <path d="M50,6 C74,2 92,22 90,48 C88,74 68,90 44,86 C20,82 6,60 10,36 C14,12 32,2 50,6" stroke="#F5F0EB" stroke-width="1.5" stroke-linecap="round" stroke-linejoin="round" opacity="1.0"/>
  <path d="M50,12 C72,8 88,26 86,48 C84,70 66,84 42,80 C18,76 8,56 12,36 C16,16 34,8 50,12" stroke="#F5F0EB" stroke-width="1.0" stroke-linecap="round" stroke-linejoin="round" opacity="0.6"/>
  <path d="M50,18 C70,14 84,28 82,48 C80,68 62,80 40,76 C18,72 10,52 14,36 C18,20 36,14 50,18" stroke="#F5F0EB" stroke-width="1.0" stroke-linecap="round" stroke-linejoin="round" opacity="0.35"/>
</svg>