<svg xmlns="http://www.w3.org/2000/svg" width="200" height="200" viewBox="0 0 200 200" fill="none">
  <circle cx="6" cy="6" r="1" fill="#F5F0EB" opacity="0.6"/>
  <circle cx="6" cy="18" r="1" fill="#F5F0EB" opacity="0.6"/>
  <circle cx="6" cy="30" r="1" fill="#F5F0EB" opacity="0.6"/>
  <circle cx="6" cy="42" r="1" fill="#F5F0EB" opacity="0.6"/>
  <circle cx="6" cy="54" r="1" fill="#F5F0EB" opacity="0.6"/>
  <circle cx="6" cy="66" r="1" fill="#F5F0EB" opacity="0.6"/>
  <circle cx="6" cy="78" r="1" fill="#F5F0EB" opacity="0.6"/>
  <circle cx="6" cy="90" r="1" fill="#F5F0EB" opacity="0.6"/>
  <circle cx="6" cy="102" r="1" fill="#F5F0EB" opacity="0.6"/>
  <circle cx="6" cy="114" r="1" fill="#F5F0EB" opacity="0.6"/>
  <circle cx="6" cy="126" r="1" fill="#F5F0EB" opacity="0.6"/>
  <circle cx="6" cy="138" r="1" fill="#F5F0EB" opacity="0.6"/>
  <circle cx="6" cy="150" r="1" fill="#F5F0EB" opacity="0.6"/>
  <circle cx="6" cy="162" r="1" fill="#F5F0EB" opacity="0.6"/>
  <circle cx="6" cy="174" r="1" fill="#F5F0EB" opacity="0.6"/>
  <circle cx="6" cy="186" r="1" fill="#F5F0EB" opacity="0.6"/>
  <circle cx="18" cy="6" r="1" fill="#F5F0EB" opacity="0.6"/>
  <circle cx="18" cy="18" r="1" fill="#F5F0EB" opacity="0.6"/>
  <circle cx="18" cy="30" r="1" fill="#F5F0EB" opacity="0.6"/>
  <circle cx="18" cy="42" r="1" fill="#F5F0EB" opacity="0.6"/>
  <circle cx="18" cy="54" r="1" fill="#F5F0EB" opacity="0.6"/>
  <circle cx="18" cy="66" r="1" fill="#F5F0EB" opacity="0.6"/>
  <circle cx="18" cy="78" r="1" fill="#F5F0EB" opacity="0.6"/>
  <circle cx="18" cy="90" r="1" fill="#F5F0EB" opacity="0.6"/>
  <circle cx="18" cy="102" r="1" fill="#F5F0EB" opacity="0.6"/>
  <circle cx="18" cy="114" r="1" fill="#F5F0EB" opacity="0.6"/>
  <circle cx="18" cy="126" r="1" fill="#F5F0EB" opacity="0.6"/>
  <circle cx="18" cy="138" r="1" fill="#F5F0EB" opacity="0.6"/>
  <circle cx="18" cy="150" r="1" fill="#F5F0EB" opacity="0.6"/>
  <circle cx="18" cy="162" r="1" fill="#F5F0EB" opacity="0.6"/>
  <circle cx="18" cy="174" r="1" fill="#F5F0EB" opacity="0.6"/>
  <circle cx="18" cy="186" r="1" fill="#F5F0EB" opacity="0.6"/>
  <circle cx="30" cy="6" r="1" fill="#F5F0EB" opacity="0.6"/>
  <circle cx="30" cy="18" r="1" fill="#F5F0EB" opacity="0.6"/>
  <circle cx="30" cy="30" r="1" fill="#F5F0EB" opacity="0.6"/>
  <circle cx="30" cy="42" r="1" fill="#F5F0EB" opacity="0.6"/>
  <circle cx="30" cy="54" r="1" fill="#F5F0EB" opacity="0.6"/>
  <circle cx="30" cy="66" r="1" fill="#F5F0EB" opacity="0.6"/>
  <circle cx="30" cy="78" r="1" fill="#F5F0EB" opacity="0.6"/>
  <circle cx="30" cy="90" r="1" fill="#F5F0EB" opacity="0.6"/>
  <circle cx="30" cy="102" r="1" fill="#F5F0EB" opacity="0.6"/>
  <circle cx="30" cy="114" r="1" fill="#F5F0EB" opacity="0.6"/>
  <circle cx="30" cy="126" r="1" fill="#F5F0EB" opacity="0.6"/>
  <circle cx="30" cy="138" r="1" fill="#F5F0EB" opacity="0.6"/>
  <circle cx="30" cy="150" r="1" fill="#F5F0EB" opacity="0.6"/>
  <circle cx="30" cy="162" r="1" fill="#F5F0EB" opacity="0.6"/>
  <circle cx="30" cy="174" r="1" fill="#F5F0EB" opacity="0.6"/>
  <circle cx="30" cy="186" r="1" fill="#F5F0EB" opacity="0.6"/>
  <circle cx="42" cy="6" r="1" fill="#F5F0EB" opacity="0.6"/>
  <circle cx="42" cy="18" r="1" fill="#F5F0EB" opacity="0.6"/>
  <circle cx="42" cy="30" r="1" fill="#F5F0EB" opacity="0.6"/>
  <circle cx="42" cy="42" r="1" fill="#F5F0EB" opacity="0.6"/>
  <circle cx="42" cy="54" r="1" fill="#F5F0EB" opacity="0.6"/>
  <circle cx="42" cy="66" r="1" fill="#F5F0EB" opacity="0.6"/>
  <circle cx="42" cy="78" r="1" fill="#F5F0EB" opacity="0.6"/>
  <circle cx="42" cy="90" r="1" fill="#F5F0EB" opacity="0.6"/>
  <circle cx="42" cy="102" r="1" fill="#F5F0EB" opacity="0.6"/>
  <circle cx="42" cy="114" r="1" fill="#F5F0EB" opacity="0.6"/>
  <circle cx="42" cy="126" r="1" fill="#F5F0EB" opacity="0.6"/>
  <circle cx="42" cy="138" r="1" fill="#F5F0EB" opacity="0.6"/>
  <circle cx="42" cy="150" r="1" fill="#F5F0EB" opacity="0.6"/>
  <circle cx="42" cy="162" r="1" fill="#F5F0EB" opacity="0.6"/>
  <circle cx="42" cy="174" r="1" fill="#F5F0EB" opacity="0.6"/>
  <circle cx="42" cy="186" r="1" fill="#F5F0EB" opacity="0.6"/>
  <circle cx="54" cy="6" r="1" fill="#F5F0EB" opacity="0.6"/>
  <circle cx="54" cy="18" r="1" fill="#F5F0EB" opacity="0.6"/>
  <circle cx="54" cy="30" r="1" fill="#F5F0EB" opacity="0.6"/>
  <circle cx="54" cy="42" r="1" fill="#F5F0EB" opacity="0.6"/>
  <circle cx="54" cy="54" r="1" fill="#F5F0EB" opacity="0.6"/>
  <circle cx="54" cy="66" r="1" fill="#F5F0EB" opacity="0.6"/>
  <circle cx="54" cy="78" r="1" fill="#F5F0EB" opacity="0.6"/>
  <circle cx="54" cy="90" r="1" fill="#F5F0EB" opacity="0.6"/>
  <circle cx="54" cy="102" r="1" fill="#F5F0EB" opacity="0.6"/>
  <circle cx="54" cy="114" r="1" fill="#F5F0EB" opacity="0.6"/>
  <circle cx="54" cy="126" r="1" fill="#F5F0EB" opacity="0.6"/>
  <circle cx="54" cy="138" r="1" fill="#F5F0EB" opacity="0.6"/>
  <circle cx="54" cy="150" r="1" fill="#F5F0EB" opacity="0.6"/>
  <circle cx="54" cy="162" r="1" fill="#F5F0EB" opacity="0.6"/>
  <circle cx="54" cy="174" r="1" fill="#F5F0EB" opacity="0.6"/>
  <circle cx="54" cy="186" r="1" fill="#F5F0EB" opacity="0.6"/>
  <circle cx="66" cy="6" r="1" fill="#F5F0EB" opacity="0.6"/>
  <circle cx="66" cy="18" r="1" fill="#F5F0EB" opacity="0.6"/>
  <circle cx="66" cy="30" r="1" fill="#F5F0EB" opacity="0.6"/>
  <circle cx="66" cy="42" r="1" fill="#F5F0EB" opacity="0.6"/>
  <circle cx="66" cy="54" r="1" fill="#F5F0EB" opacity="0.6"/>
  <circle cx="66" cy="66" r="1" fill="#F5F0EB" opacity="0.6"/>
  <circle cx="66" cy="78" r="1" fill="#F5F0EB" opacity="0.6"/>
  <circle cx="66" cy="90" r="1" fill="#F5F0EB" opacity="0.6"/>
  <circle cx="66" cy="102" r="1" fill="#F5F0EB" opacity="0.6"/>
  <circle cx="66" cy="114" r="1" fill="#F5F0EB" opacity="0.6"/>
  <circle cx="66" cy="126" r="1" fill="#F5F0EB" opacity="0.6"/>
  <circle cx="66" cy="138" r="1" fill="#F5F0EB" opacity="0.6"/>
  <circle cx="66" cy="150" r="1" fill="#F5F0EB" opacity="0.6"/>
  <circle cx="66" cy="162" r="1" fill="#F5F0EB" opacity="0.6"/>
  <circle cx="66" cy="174" r="1" fill="#F5F0EB" opacity="0.6"/>
  <circle cx="66" cy="186" r="1" fill="#F5F0EB" opacity="0.6"/>
  <circle cx="78" cy="6" r="1" fill="#F5F0EB" opacity="0.6"/>
  <circle cx="78" cy="18" r="1" fill="#F5F0EB" opacity="0.6"/>
  <circle cx="78" cy="30" r="1" fill="#F5F0EB" opacity="0.6"/>
  <circle cx="78" cy="42" r="1" fill="#F5F0EB" opacity="0.6"/>
  <circle cx="78" cy="54" r="1" fill="#F5F0EB" opacity="0.6"/>
  <circle cx="78" cy="66" r="1" fill="#F5F0EB" opacity="0.6"/>
  <circle cx="78" cy="78" r="1" fill="#F5F0EB" opacity="0.6"/>
  <circle cx="78" cy="90" r="1" fill="#F5F0EB" opacity="0.6"/>
  <circle cx="78" cy="102" r="1" fill="#F5F0EB" opacity="0.6"/>
  <circle cx="78" cy="114" r="1" fill="#F5F0EB" opacity="0.6"/>
  <circle cx="78" cy="126" r="1" fill="#F5F0EB" opacity="0.6"/>
  <circle cx="78" cy="138" r="1" fill="#F5F0EB" opacity="0.6"/>
  <circle cx="78" cy="150" r="1" fill="#F5F0EB" opacity="0.6"/>
  <circle cx="78" cy="162" r="1" fill="#F5F0EB" opacity="0.6"/>
  <circle cx="78" cy="174" r="1" fill="#F5F0EB" opacity="0.6"/>
  <circle cx="78" cy="186" r="1" fill="#F5F0EB" opacity="0.6"/>
  <circle cx="90" cy="6" r="1" fill="#F5F0EB" opacity="0.6"/>
  <circle cx="90" cy="18" r="1" fill="#F5F0EB" opacity="0.6"/>
  <circle cx="90" cy="30" r="1" fill="#F5F0EB" opacity="0.6"/>
  <circle cx="90" cy="42" r="1" fill="#F5F0EB" opacity="0.6"/>
  <circle cx="90" cy="54" r="1" fill="#F5F0EB" opacity="0.6"/>
  <circle cx="90" cy="66" r="1" fill="#F5F0EB" opacity="0.6"/>
  <circle cx="90" cy="78" r="1" fill="#F5F0EB" opacity="0.6"/>
  <circle cx="90" cy="90" r="1" fill="#F5F0EB" opacity="0.6"/>
  <circle cx="90" cy="102" r="1" fill="#F5F0EB" opacity="0.6"/>
  <circle cx="90" cy="114" r="1" fill="#F5F0EB" opacity="0.6"/>
  <circle cx="90" cy="126" r="1" fill="#F5F0EB" opacity="0.6"/>
  <circle cx="90" cy="138" r="1" fill="#F5F0EB" opacity="0.6"/>
  <circle cx="90" cy="150" r="1" fill="#F5F0EB" opacity="0.6"/>
  <circle cx="90" cy="162" r="1" fill="#F5F0EB" opacity="0.6"/>
  <circle cx="90" cy="174" r="1" fill="#F5F0EB" opacity="0.6"/>
  <circle cx="90" cy="186" r="1" fill="#F5F0EB" opacity="0.6"/>
  <circle cx="102" cy="6" r="1" fill="#F5F0EB" opacity="0.6"/>
  <circle cx="102" cy="18" r="1" fill="#F5F0EB" opacity="0.6"/>
  <circle cx="102" cy="30" r="1" fill="#F5F0EB" opacity="0.6"/>
  <circle cx="102" cy="42" r="1" fill="#F5F0EB" opacity="0.6"/>
  <circle cx="102" cy="54" r="1" fill="#F5F0EB" opacity="0.6"/>
  <circle cx="102" cy="66" r="1" fill="#F5F0EB" opacity="0.6"/>
  <circle cx="102" cy="78" r="1" fill="#F5F0EB" opacity="0.6"/>
  <circle cx="102" cy="90" r="1" fill="#F5F0EB" opacity="0.6"/>
  <circle cx="102" cy="102" r="1" fill="#F5F0EB" opacity="0.6"/>
  <circle cx="102" cy="114" r="1" fill="#F5F0EB" opacity="0.6"/>
  <circle cx="102" cy="126" r="1" fill="#F5F0EB" opacity="0.6"/>
  <circle cx="102" cy="138" r="1" fill="#F5F0EB" opacity="0.6"/>
  <circle cx="102" cy="150" r="1" fill="#F5F0EB" opacity="0.6"/>
  <circle cx="102" cy="162" r="1" fill="#F5F0EB" opacity="0.6"/>
  <circle cx="102" cy="174" r="1" fill="#F5F0EB" opacity="0.6"/>
  <circle cx="102" cy="186" r="1" fill="#F5F0EB" opacity="0.6"/>
  <circle cx="114" cy="6" r="1" fill="#F5F0EB" opacity="0.6"/>
  <circle cx="114" cy="18" r="1" fill="#F5F0EB" opacity="0.6"/>
  <circle cx="114" cy="30" r="1" fill="#F5F0EB" opacity="0.6"/>
  <circle cx="114" cy="42" r="1" fill="#F5F0EB" opacity="0.6"/>
  <circle cx="114" cy="54" r="1" fill="#F5F0EB" opacity="0.6"/>
  <circle cx="114" cy="66" r="1" fill="#F5F0EB" opacity="0.6"/>
  <circle cx="114" cy="78" r="1" fill="#F5F0EB" opacity="0.6"/>
  <circle cx="114" cy="90" r="1" fill="#F5F0EB" opacity="0.6"/>
  <circle cx="114" cy="102" r="1" fill="#F5F0EB" opacity="0.6"/>
  <circle cx="114" cy="114" r="1" fill="#F5F0EB" opacity="0.6"/>
  <circle cx="114" cy="126" r="1" fill="#F5F0EB" opacity="0.6"/>
  <circle cx="114" cy="138" r="1" fill="#F5F0EB" opacity="0.6"/>
  <circle cx="114" cy="150" r="1" fill="#F5F0EB" opacity="0.6"/>
  <circle cx="114" cy="162" r="1" fill="#F5F0EB" opacity="0.6"/>
  <circle cx="114" cy="174" r="1" fill="#F5F0EB" opacity="0.6"/>
  <circle cx="114" cy="186" r="1" fill="#F5F0EB" opacity="0.6"/>
  <circle cx="126" cy="6" r="1" fill="#F5F0EB" opacity="0.6"/>
  <circle cx="126" cy="18" r="1" fill="#F5F0EB" opacity="0.6"/>
  <circle cx="126" cy="30" r="1" fill="#F5F0EB" opacity="0.6"/>
  <circle cx="126" cy="42" r="1" fill="#F5F0EB" opacity="0.6"/>
  <circle cx="126" cy="54" r="1" fill="#F5F0EB" opacity="0.6"/>
  <circle cx="126" cy="66" r="1" fill="#F5F0EB" opacity="0.6"/>
  <circle cx="126" cy="78" r="1" fill="#F5F0EB" opacity="0.6"/>
  <circle cx="126" cy="90" r="1" fill="#F5F0EB" opacity="0.6"/>
  <circle cx="126" cy="102" r="1" fill="#F5F0EB" opacity="0.6"/>
  <circle cx="126" cy="114" r="1" fill="#F5F0EB" opacity="0.6"/>
  <circle cx="126" cy="126" r="1" fill="#F5F0EB" opacity="0.6"/>
  <circle cx="126" cy="138" r="1" fill="#F5F0EB" opacity="0.6"/>
  <circle cx="126" cy="150" r="1" fill="#F5F0EB" opacity="0.6"/>
  <circle cx="126" cy="162" r="1" fill="#F5F0EB" opacity="0.6"/>
  <circle cx="126" cy="174" r="1" fill="#F5F0EB" opacity="0.6"/>
  <circle cx="126" cy="186" r="1" fill="#F5F0EB" opacity="0.6"/>
  <circle cx="138" cy="6" r="1" fill="#F5F0EB" opacity="0.6"/>
  <circle cx="138" cy="18" r="1" fill="#F5F0EB" opacity="0.6"/>
  <circle cx="138" cy="30" r="1" fill="#F5F0EB" opacity="0.6"/>
  <circle cx="138" cy="42" r="1" fill="#F5F0EB" opacity="0.6"/>
  <circle cx="138" cy="54" r="1" fill="#F5F0EB" opacity="0.6"/>
  <circle cx="138" cy="66" r="1" fill="#F5F0EB" opacity="0.6"/>
  <circle cx="138" cy="78" r="1" fill="#F5F0EB" opacity="0.6"/>
  <circle cx="138" cy="90" r="1" fill="#F5F0EB" opacity="0.6"/>
  <circle cx="138" cy="102" r="1" fill="#F5F0EB" opacity="0.6"/>
  <circle cx="138" cy="114" r="1" fill="#F5F0EB" opacity="0.6"/>
  <circle cx="138" cy="126" r="1" fill="#F5F0EB" opacity="0.6"/>
  <circle cx="138" cy="138" r="1" fill="#F5F0EB" opacity="0.6"/>
  <circle cx="138" cy="150" r="1" fill="#F5F0EB" opacity="0.6"/>
  <circle cx="138" cy="162" r="1" fill="#F5F0EB" opacity="0.6"/>
  <circle cx="138" cy="174" r="1" fill="#F5F0EB" opacity="0.6"/>
  <circle cx="138" cy="186" r="1" fill="#F5F0EB" opacity="0.6"/>
  <circle cx="150" cy="6" r="1" fill="#F5F0EB" opacity="0.6"/>
  <circle cx="150" cy="18" r="1" fill="#F5F0EB" opacity="0.6"/>
  <circle cx="150" cy="30" r="1" fill="#F5F0EB" opacity="0.6"/>
  <circle cx="150" cy="42" r="1" fill="#F5F0EB" opacity="0.6"/>
  <circle cx="150" cy="54" r="1" fill="#F5F0EB" opacity="0.6"/>
  <circle cx="150" cy="66" r="1" fill="#F5F0EB" opacity="0.6"/>
  <circle cx="150" cy="78" r="1" fill="#F5F0EB" opacity="0.6"/>
  <circle cx="150" cy="90" r="1" fill="#F5F0EB" opacity="0.6"/>
  <circle cx="150" cy="102" r="1" fill="#F5F0EB" opacity="0.6"/>
  <circle cx="150" cy="114" r="1" fill="#F5F0EB" opacity="0.6"/>
  <circle cx="150" cy="126" r="1" fill="#F5F0EB" opacity="0.6"/>
  <circle cx="150" cy="138" r="1" fill="#F5F0EB" opacity="0.6"/>
  <circle cx="150" cy="150" r="1" fill="#F5F0EB" opacity="0.6"/>
  <circle cx="150" cy="162" r="1" fill="#F5F0EB" opacity="0.6"/>
  <circle cx="150" cy="174" r="1" fill="#F5F0EB" opacity="0.6"/>
  <circle cx="150" cy="186" r="1" fill="#F5F0EB" opacity="0.6"/>
  <circle cx="162" cy="6" r="1" fill="#F5F0EB" opacity="0.6"/>
  <circle cx="162" cy="18" r="1" fill="#F5F0EB" opacity="0.6"/>
  <circle cx="162" cy="30" r="1" fill="#F5F0EB" opacity="0.6"/>
  <circle cx="162" cy="42" r="1" fill="#F5F0EB" opacity="0.6"/>
  <circle cx="162" cy="54" r="1" fill="#F5F0EB" opacity="0.6"/>
  <circle cx="162" cy="66" r="1" fill="#F5F0EB" opacity="0.6"/>
  <circle cx="162" cy="78" r="1" fill="#F5F0EB" opacity="0.6"/>
  <circle cx="162" cy="90" r="1" fill="#F5F0EB" opacity="0.6"/>
  <circle cx="162" cy="102" r="1" fill="#F5F0EB" opacity="0.6"/>
  <circle cx="162" cy="114" r="1" fill="#F5F0EB" opacity="0.6"/>
  <circle cx="162" cy="126" r="1" fill="#F5F0EB" opacity="0.6"/>
  <circle cx="162" cy="138" r="1" fill="#F5F0EB" opacity="0.6"/>
  <circle cx="162" cy="150" r="1" fill="#F5F0EB" opacity="0.6"/>
  <circle cx="162" cy="162" r="1" fill="#F5F0EB" opacity="0.6"/>
  <circle cx="162" cy="174" r="1" fill="#F5F0EB" opacity="0.6"/>
  <circle cx="162" cy="186" r="1" fill="#F5F0EB" opacity="0.6"/>
  <circle cx="174" cy="6" r="1" fill="#F5F0EB" opacity="0.6"/>
  <circle cx="174" cy="18" r="1" fill="#F5F0EB" opacity="0.6"/>
  <circle cx="174" cy="30" r="1" fill="#F5F0EB" opacity="0.6"/>
  <circle cx="174" cy="42" r="1" fill="#F5F0EB" opacity="0.6"/>
  <circle cx="174" cy="54" r="1" fill="#F5F0EB" opacity="0.6"/>
  <circle cx="174" cy="66" r="1" fill="#F5F0EB" opacity="0.6"/>
  <circle cx="174" cy="78" r="1" fill="#F5F0EB" opacity="0.6"/>
  <circle cx="174" cy="90" r="1" fill="#F5F0EB" opacity="0.6"/>
  <circle cx="174" cy="102" r="1" fill="#F5F0EB" opacity="0.6"/>
  <circle cx="174" cy="114" r="1" fill="#F5F0EB" opacity="0.6"/>
  <circle cx="174" cy="126" r="1" fill="#F5F0EB" opacity="0.6"/>
  <circle cx="174" cy="138" r="1" fill="#F5F0EB" opacity="0.6"/>
  <circle cx="174" cy="150" r="1" fill="#F5F0EB" opacity="0.6"/>
  <circle cx="174" cy="162" r="1" fill="#F5F0EB" opacity="0.6"/>
  <circle cx="174" cy="174" r="1" fill="#F5F0EB" opacity="0.6"/>
  <circle cx="174" cy="186" r="1" fill="#F5F0EB" opacity="0.6"/>
  <circle cx="186" cy="6" r="1" fill="#F5F0EB" opacity="0.6"/>
  <circle cx="186" cy="18" r="1" fill="#F5F0EB" opacity="0.6"/>
  <circle cx="186" cy="30" r="1" fill="#F5F0EB" opacity="0.6"/>
  <circle cx="186" cy="42" r="1" fill="#F5F0EB" opacity="0.6"/>
  <circle cx="186" cy="54" r="1" fill="#F5F0EB" opacity="0.6"/>
  <circle cx="186" cy="66" r="1" fill="#F5F0EB" opacity="0.6"/>
  <circle cx="186" cy="78" r="1" fill="#F5F0EB" opacity="0.6"/>
  <circle cx="186" cy="90" r="1" fill="#F5F0EB" opacity="0.6"/>
  <circle cx="186" cy="102" r="1" fill="#F5F0EB" opacity="0.6"/>
  <circle cx="186" cy="114" r="1" fill="#F5F0EB" opacity="0.6"/>
  <circle cx="186" cy="126" r="1" fill="#F5F0EB" opacity="0.6"/>
  <circle cx="186" cy="138" r="1" fill="#F5F0EB" opacity="0.6"/>
  <circle cx="186" cy="150" r="1" fill="#F5F0EB" opacity="0.6"/>
  <circle cx="186" cy="162" r="1" fill="#F5F0EB" opacity="0.6"/>
  <circle cx="186" cy="174" r="1" fill="#F5F0EB" opacity="0.6"/>
  <circle cx="186" cy="186" r="1" fill="#F5F0EB" opacity="0.6"/>
</svg>