<svg xmlns="http://www.w3.org/2000/svg" width="400" height="400" viewBox="0 0 400 400" fill="none">
  <path d="M145,240 C245,225 174,94 26,129" stroke="#F5F0EB" stroke-width="0.4" stroke-linecap="round" stroke-linejoin="round" opacity="0.14"/>
  <path d="M244,58 C33,205 251,37 295,322" stroke="#F5F0EB" stroke-width="0.4" stroke-linecap="round" stroke-linejoin="round" opacity="0.12"/>
  <path d="M77,76 C288,155 43,127 60,285" stroke="#F5F0EB" stroke-width="0.4" stroke-linecap="round" stroke-linejoin="round" opacity="0.13"/>
  <path d="M310,305 C316,115 397,267 194,230" stroke="#F5F0EB" stroke-width="0.4" stroke-linecap="round" stroke-linejoin="round" opacity="0.14"/>
  <path d="M152,301 C219,156 291,317 30,312" stroke="#F5F0EB" stroke-width="0.4" stroke-linecap="round" stroke-linejoin="round" opacity="0.15"/>
  <path d="M50,390 C106,320 108,135 338,41" stroke="#F5F0EB" stroke-width="0.4" stroke-linecap="round" stroke-linejoin="round" opacity="0.07"/>
  <path d="M88,282 C38,80 1,209 230,352" stroke="#F5F0EB" stroke-width="0.4" stroke-linecap="round" stroke-linejoin="round" opacity="0.11"/>
  <path d="M149,16 C118,147 361,144 359,232" stroke="#F5F0EB" stroke-width="0.4" stroke-linecap="round" stroke-linejoin="round" opacity="0.06"/>
  <path d="M119,135 C320,301 338,101 217,58" stroke="#F5F0EB" stroke-width="0.4" stroke-linecap="round" stroke-linejoin="round" opacity="0.1"/>
  <path d="M331,76 C136,72 36,30 84,157" stroke="#F5F0EB" stroke-width="0.4" stroke-linecap="round" stroke-linejoin="round" opacity="0.11"/>
  <path d="M291,147 C224,63 239,352 155,358" stroke="#F5F0EB" stroke-width="0.4" stroke-linecap="round" stroke-linejoin="round" opacity="0.09"/>
  <path d="M139,256 C276,252 224,41 306,20" stroke="#F5F0EB" stroke-width="0.4" stroke-linecap="round" stroke-linejoin="round" opacity="0.14"/>
  <path d="M376,165 C309,128 13,46 117,345" stroke="#F5F0EB" stroke-width="0.4" stroke-linecap="round" stroke-linejoin="round" opacity="0.13"/>
  <path d="M294,300 C10,391 344,137 295,20" stroke="#F5F0EB" stroke-width="0.4" stroke-linecap="round" stroke-linejoin="round" opacity="0.13"/>
  <path d="M89,240 C265,333 226,142 92,299" stroke="#F5F0EB" stroke-width="0.4" stroke-linecap="round" stroke-linejoin="round" opacity="0.09"/>
  <path d="M251,46 C240,178 209,170 164,343" stroke="#F5F0EB" stroke-width="0.4" stroke-linecap="round" stroke-linejoin="round" opacity="0.06"/>
  <path d="M82,168 C210,355 253,147 339,205" stroke="#F5F0EB" stroke-width="0.4" stroke-linecap="round" stroke-linejoin="round" opacity="0.13"/>
  <path d="M281,18 C232,45 161,129 165,59" stroke="#F5F0EB" stroke-width="0.4" stroke-linecap="round" stroke-linejoin="round" opacity="0.15"/>
  <path d="M206,263 C0,336 277,236 211,27" stroke="#F5F0EB" stroke-width="0.4" stroke-linecap="round" stroke-linejoin="round" opacity="0.07"/>
  <path d="M185,318 C387,255 320,226 389,26" stroke="#F5F0EB" stroke-width="0.4" stroke-linecap="round" stroke-linejoin="round" opacity="0.07"/>
  <path d="M281,67 C147,224 357,248 62,14" stroke="#F5F0EB" stroke-width="0.4" stroke-linecap="round" stroke-linejoin="round" opacity="0.15"/>
  <path d="M311,122 C363,81 159,282 7,282" stroke="#F5F0EB" stroke-width="0.4" stroke-linecap="round" stroke-linejoin="round" opacity="0.09"/>
  <path d="M115,58 C236,60 331,78 255,366" stroke="#F5F0EB" stroke-width="0.4" stroke-linecap="round" stroke-linejoin="round" opacity="0.08"/>
  <path d="M361,139 C212,247 241,124 233,282" stroke="#F5F0EB" stroke-width="0.4" stroke-linecap="round" stroke-linejoin="round" opacity="0.06"/>
  <path d="M97,306 C260,382 69,35 141,395" stroke="#F5F0EB" stroke-width="0.4" stroke-linecap="round" stroke-linejoin="round" opacity="0.13"/>
  <path d="M212,174 C259,136 1,144 371,152" stroke="#F5F0EB" stroke-width="0.4" stroke-linecap="round" stroke-linejoin="round" opacity="0.13"/>
  <path d="M296,337 C250,76 228,275 247,176" stroke="#F5F0EB" stroke-width="0.4" stroke-linecap="round" stroke-linejoin="round" opacity="0.08"/>
  <path d="M390,278 C193,233 164,96 357,122" stroke="#F5F0EB" stroke-width="0.4" stroke-linecap="round" stroke-linejoin="round" opacity="0.11"/>
  <path d="M119,210 C22,162 381,242 361,195" stroke="#F5F0EB" stroke-width="0.4" stroke-linecap="round" stroke-linejoin="round" opacity="0.09"/>
  <path d="M339,333 C77,253 18,64 257,302" stroke="#F5F0EB" stroke-width="0.4" stroke-linecap="round" stroke-linejoin="round" opacity="0.08"/>
</svg>