<svg xmlns="http://www.w3.org/2000/svg" width="200" height="200" viewBox="0 0 200 200" fill="none">
  <path d="M0,10 C50,4 100,16 150,10 C175,6 200,14 200,10" stroke="#F5F0EB" stroke-width="0.7" stroke-linecap="round" stroke-linejoin="round" opacity="0.4"/>
  <path d="M0,32 C50,26 100,38 150,32 C175,28 200,36 200,32" stroke="#F5F0EB" stroke-width="0.7" stroke-linecap="round" stroke-linejoin="round" opacity="0.4"/>
  <path d="M0,54 C50,48 100,60 150,54 C175,50 200,58 200,54" stroke="#F5F0EB" stroke-width="0.7" stroke-linecap="round" stroke-linejoin="round" opacity="0.4"/>
  <path d="M0,76 C50,70 100,82 150,76 C175,72 200,80 200,76" stroke="#F5F0EB" stroke-width="0.7" stroke-linecap="round" stroke-linejoin="round" opacity="0.4"/>
  <path d="M0,98 C50,92 100,104 150,98 C175,94 200,102 200,98" stroke="#F5F0EB" stroke-width="0.7" stroke-linecap="round" stroke-linejoin="round" opacity="0.4"/>
  <path d="M0,120 C50,114 100,126 150,120 C175,116 200,124 200,120" stroke="#F5F0EB" stroke-width="0.7" stroke-linecap="round" stroke-linejoin="round" opacity="0.4"/>
  <path d="M0,142 C50,136 100,148 150,142 C175,138 200,146 200,142" stroke="#F5F0EB" stroke-width="0.7" stroke-linecap="round" stroke-linejoin="round" opacity="0.4"/>
  <path d="M0,164 C50,158 100,170 150,164 C175,160 200,168 200,164" stroke="#F5F0EB" stroke-width="0.7" stroke-linecap="round" stroke-linejoin="round" opacity="0.4"/>
  <path d="M0,186 C50,180 100,192 150,186 C175,182 200,190 200,186" stroke="#F5F0EB" stroke-width="0.7" stroke-linecap="round" stroke-linejoin="round" opacity="0.4"/>
</svg>