<svg xmlns="http://www.w3.org/2000/svg" width="400" height="400" viewBox="0 0 400 400" fill="none">
  <circle cx="327" cy="57" r="0.3" fill="#F5F0EB" opacity="0.17"/>
  <circle cx="114" cy="71" r="1.0" fill="#F5F0EB" opacity="0.27"/>
  <circle cx="279" cy="44" r="0.8" fill="#F5F0EB" opacity="0.11"/>
  <circle cx="47" cy="111" r="0.5" fill="#F5F0EB" opacity="0.25"/>
  <circle cx="287" cy="101" r="0.9" fill="#F5F0EB" opacity="0.28"/>
  <circle cx="214" cy="112" r="0.7" fill="#F5F0EB" opacity="0.17"/>
  <circle cx="3" cy="388" r="1.0" fill="#F5F0EB" opacity="0.27"/>
  <circle cx="174" cy="142" r="0.4" fill="#F5F0EB" opacity="0.34"/>
  <circle cx="172" cy="52" r="0.4" fill="#F5F0EB" opacity="0.12"/>
  <circle cx="176" cy="309" r="0.5" fill="#F5F0EB" opacity="0.11"/>
  <circle cx="235" cy="274" r="0.4" fill="#F5F0EB" opacity="0.33"/>
  <circle cx="40" cy="282" r="0.6" fill="#F5F0EB" opacity="0.26"/>
  <circle cx="185" cy="295" r="0.5" fill="#F5F0EB" opacity="0.12"/>
  <circle cx="338" cy="116" r="1.0" fill="#F5F0EB" opacity="0.35"/>
  <circle cx="119" cy="51" r="0.6" fill="#F5F0EB" opacity="0.21"/>
  <circle cx="186" cy="83" r="0.6" fill="#F5F0EB" opacity="0.15"/>
  <circle cx="136" cy="359" r="1.1" fill="#F5F0EB" opacity="0.26"/>
  <circle cx="311" cy="325" r="0.5" fill="#F5F0EB" opacity="0.28"/>
  <circle cx="83" cy="236" r="0.6" fill="#F5F0EB" opacity="0.35"/>
  <circle cx="327" cy="352" r="0.8" fill="#F5F0EB" opacity="0.27"/>
  <circle cx="393" cy="397" r="0.4" fill="#F5F0EB" opacity="0.31"/>
  <circle cx="161" cy="205" r="0.5" fill="#F5F0EB" opacity="0.15"/>
  <circle cx="290" cy="367" r="0.6" fill="#F5F0EB" opacity="0.26"/>
  <circle cx="202" cy="329" r="0.7" fill="#F5F0EB" opacity="0.17"/>
  <circle cx="126" cy="381" r="0.8" fill="#F5F0EB" opacity="0.17"/>
  <circle cx="299" cy="219" r="1.1" fill="#F5F0EB" opacity="0.20"/>
  <circle cx="112" cy="70" r="0.8" fill="#F5F0EB" opacity="0.12"/>
  <circle cx="24" cy="56" r="0.4" fill="#F5F0EB" opacity="0.14"/>
  <circle cx="348" cy="216" r="0.8" fill="#F5F0EB" opacity="0.20"/>
  <circle cx="305" cy="239" r="0.8" fill="#F5F0EB" opacity="0.34"/>
  <circle cx="5" cy="348" r="0.9" fill="#F5F0EB" opacity="0.27"/>
  <circle cx="274" cy="384" r="0.5" fill="#F5F0EB" opacity="0.26"/>
  <circle cx="57" cy="150" r="0.7" fill="#F5F0EB" opacity="0.21"/>
  <circle cx="369" cy="368" r="0.5" fill="#F5F0EB" opacity="0.23"/>
  <circle cx="91" cy="259" r="1.1" fill="#F5F0EB" opacity="0.32"/>
  <circle cx="152" cy="327" r="0.8" fill="#F5F0EB" opacity="0.15"/>
  <circle cx="191" cy="390" r="0.4" fill="#F5F0EB" opacity="0.34"/>
  <circle cx="271" cy="0" r="0.8" fill="#F5F0EB" opacity="0.22"/>
  <circle cx="57" cy="185" r="1.1" fill="#F5F0EB" opacity="0.31"/>
  <circle cx="157" cy="122" r="0.4" fill="#F5F0EB" opacity="0.32"/>
  <circle cx="40" cy="43" r="1.0" fill="#F5F0EB" opacity="0.30"/>
  <circle cx="389" cy="272" r="1.0" fill="#F5F0EB" opacity="0.13"/>
  <circle cx="243" cy="281" r="0.4" fill="#F5F0EB" opacity="0.23"/>
  <circle cx="310" cy="216" r="1.2" fill="#F5F0EB" opacity="0.33"/>
  <circle cx="386" cy="373" r="0.9" fill="#F5F0EB" opacity="0.28"/>
  <circle cx="204" cy="343" r="0.9" fill="#F5F0EB" opacity="0.21"/>
  <circle cx="264" cy="231" r="0.4" fill="#F5F0EB" opacity="0.16"/>
  <circle cx="173" cy="10" r="0.8" fill="#F5F0EB" opacity="0.16"/>
  <circle cx="112" cy="3" r="0.4" fill="#F5F0EB" opacity="0.26"/>
  <circle cx="117" cy="34" r="1.1" fill="#F5F0EB" opacity="0.31"/>
  <circle cx="36" cy="263" r="0.5" fill="#F5F0EB" opacity="0.27"/>
  <circle cx="109" cy="276" r="0.4" fill="#F5F0EB" opacity="0.33"/>
  <circle cx="292" cy="295" r="0.7" fill="#F5F0EB" opacity="0.30"/>
  <circle cx="208" cy="97" r="0.4" fill="#F5F0EB" opacity="0.26"/>
  <circle cx="181" cy="216" r="0.7" fill="#F5F0EB" opacity="0.32"/>
  <circle cx="27" cy="344" r="0.9" fill="#F5F0EB" opacity="0.26"/>
  <circle cx="31" cy="206" r="1.0" fill="#F5F0EB" opacity="0.30"/>
  <circle cx="55" cy="127" r="0.5" fill="#F5F0EB" opacity="0.23"/>
  <circle cx="71" cy="216" r="0.5" fill="#F5F0EB" opacity="0.22"/>
  <circle cx="38" cy="226" r="1.0" fill="#F5F0EB" opacity="0.31"/>
  <circle cx="50" cy="25" r="0.9" fill="#F5F0EB" opacity="0.24"/>
  <circle cx="7" cy="47" r="1.1" fill="#F5F0EB" opacity="0.31"/>
  <circle cx="85" cy="208" r="0.7" fill="#F5F0EB" opacity="0.15"/>
  <circle cx="205" cy="30" r="0.4" fill="#F5F0EB" opacity="0.10"/>
  <circle cx="199" cy="135" r="1.1" fill="#F5F0EB" opacity="0.30"/>
  <circle cx="146" cy="216" r="0.9" fill="#F5F0EB" opacity="0.28"/>
  <circle cx="284" cy="338" r="0.9" fill="#F5F0EB" opacity="0.14"/>
  <circle cx="151" cy="111" r="1.2" fill="#F5F0EB" opacity="0.24"/>
  <circle cx="277" cy="31" r="1.0" fill="#F5F0EB" opacity="0.11"/>
  <circle cx="299" cy="244" r="0.8" fill="#F5F0EB" opacity="0.31"/>
  <circle cx="80" cy="29" r="1.2" fill="#F5F0EB" opacity="0.12"/>
  <circle cx="95" cy="35" r="0.8" fill="#F5F0EB" opacity="0.27"/>
  <circle cx="120" cy="206" r="0.4" fill="#F5F0EB" opacity="0.32"/>
  <circle cx="126" cy="296" r="0.8" fill="#F5F0EB" opacity="0.25"/>
  <circle cx="214" cy="336" r="0.8" fill="#F5F0EB" opacity="0.23"/>
  <circle cx="133" cy="104" r="0.9" fill="#F5F0EB" opacity="0.18"/>
  <circle cx="135" cy="202" r="0.4" fill="#F5F0EB" opacity="0.26"/>
  <circle cx="234" cy="161" r="1.1" fill="#F5F0EB" opacity="0.33"/>
  <circle cx="4" cy="234" r="0.9" fill="#F5F0EB" opacity="0.24"/>
  <circle cx="51" cy="37" r="0.8" fill="#F5F0EB" opacity="0.23"/>
  <circle cx="67" cy="178" r="1.1" fill="#F5F0EB" opacity="0.32"/>
  <circle cx="189" cy="145" r="0.4" fill="#F5F0EB" opacity="0.31"/>
  <circle cx="360" cy="154" r="0.9" fill="#F5F0EB" opacity="0.35"/>
  <circle cx="334" cy="270" r="0.3" fill="#F5F0EB" opacity="0.30"/>
  <circle cx="153" cy="339" r="0.4" fill="#F5F0EB" opacity="0.32"/>
  <circle cx="135" cy="59" r="1.1" fill="#F5F0EB" opacity="0.29"/>
  <circle cx="79" cy="139" r="0.6" fill="#F5F0EB" opacity="0.15"/>
  <circle cx="175" cy="104" r="0.9" fill="#F5F0EB" opacity="0.31"/>
  <circle cx="258" cy="250" r="0.5" fill="#F5F0EB" opacity="0.33"/>
  <circle cx="26" cy="47" r="0.9" fill="#F5F0EB" opacity="0.31"/>
  <circle cx="22" cy="1" r="0.6" fill="#F5F0EB" opacity="0.13"/>
  <circle cx="134" cy="82" r="1.0" fill="#F5F0EB" opacity="0.24"/>
  <circle cx="218" cy="287" r="0.3" fill="#F5F0EB" opacity="0.12"/>
  <circle cx="353" cy="76" r="0.8" fill="#F5F0EB" opacity="0.31"/>
  <circle cx="298" cy="282" r="0.4" fill="#F5F0EB" opacity="0.13"/>
  <circle cx="157" cy="186" r="1.1" fill="#F5F0EB" opacity="0.30"/>
  <circle cx="20" cy="183" r="0.5" fill="#F5F0EB" opacity="0.16"/>
  <circle cx="52" cy="181" r="1.0" fill="#F5F0EB" opacity="0.32"/>
  <circle cx="208" cy="317" r="1.0" fill="#F5F0EB" opacity="0.33"/>
  <circle cx="121" cy="83" r="1.2" fill="#F5F0EB" opacity="0.30"/>
  <circle cx="211" cy="12" r="0.5" fill="#F5F0EB" opacity="0.33"/>
  <circle cx="400" cy="210" r="1.0" fill="#F5F0EB" opacity="0.32"/>
  <circle cx="127" cy="136" r="0.4" fill="#F5F0EB" opacity="0.28"/>
  <circle cx="195" cy="19" r="1.1" fill="#F5F0EB" opacity="0.16"/>
  <circle cx="235" cy="179" r="0.6" fill="#F5F0EB" opacity="0.30"/>
  <circle cx="116" cy="114" r="0.3" fill="#F5F0EB" opacity="0.15"/>
  <circle cx="168" cy="142" r="1.1" fill="#F5F0EB" opacity="0.34"/>
  <circle cx="142" cy="179" r="0.9" fill="#F5F0EB" opacity="0.20"/>
  <circle cx="274" cy="169" r="1.1" fill="#F5F0EB" opacity="0.13"/>
  <circle cx="133" cy="91" r="0.8" fill="#F5F0EB" opacity="0.35"/>
  <circle cx="19" cy="55" r="0.8" fill="#F5F0EB" opacity="0.19"/>
  <circle cx="160" cy="223" r="0.8" fill="#F5F0EB" opacity="0.23"/>
  <circle cx="197" cy="295" r="0.5" fill="#F5F0EB" opacity="0.11"/>
  <circle cx="223" cy="0" r="0.8" fill="#F5F0EB" opacity="0.30"/>
  <circle cx="351" cy="368" r="1.1" fill="#F5F0EB" opacity="0.28"/>
  <circle cx="100" cy="186" r="0.7" fill="#F5F0EB" opacity="0.34"/>
  <circle cx="169" cy="319" r="0.6" fill="#F5F0EB" opacity="0.31"/>
  <circle cx="368" cy="153" r="0.8" fill="#F5F0EB" opacity="0.27"/>
  <circle cx="167" cy="206" r="0.9" fill="#F5F0EB" opacity="0.24"/>
  <circle cx="98" cy="215" r="0.9" fill="#F5F0EB" opacity="0.19"/>
  <circle cx="383" cy="89" r="0.9" fill="#F5F0EB" opacity="0.18"/>
  <circle cx="280" cy="0" r="0.6" fill="#F5F0EB" opacity="0.15"/>
  <circle cx="296" cy="310" r="0.9" fill="#F5F0EB" opacity="0.22"/>
  <circle cx="226" cy="345" r="0.5" fill="#F5F0EB" opacity="0.22"/>
  <circle cx="376" cy="86" r="0.9" fill="#F5F0EB" opacity="0.17"/>
  <circle cx="339" cy="324" r="0.9" fill="#F5F0EB" opacity="0.12"/>
  <circle cx="384" cy="120" r="0.9" fill="#F5F0EB" opacity="0.16"/>
  <circle cx="101" cy="75" r="0.3" fill="#F5F0EB" opacity="0.16"/>
  <circle cx="243" cy="312" r="1.1" fill="#F5F0EB" opacity="0.12"/>
  <circle cx="212" cy="322" r="0.8" fill="#F5F0EB" opacity="0.28"/>
  <circle cx="196" cy="253" r="0.7" fill="#F5F0EB" opacity="0.14"/>
  <circle cx="352" cy="2" r="1.1" fill="#F5F0EB" opacity="0.32"/>
  <circle cx="54" cy="398" r="0.7" fill="#F5F0EB" opacity="0.14"/>
  <circle cx="356" cy="265" r="0.7" fill="#F5F0EB" opacity="0.24"/>
  <circle cx="62" cy="233" r="0.4" fill="#F5F0EB" opacity="0.22"/>
  <circle cx="271" cy="286" r="0.8" fill="#F5F0EB" opacity="0.34"/>
  <circle cx="226" cy="313" r="1.0" fill="#F5F0EB" opacity="0.32"/>
  <circle cx="218" cy="280" r="0.7" fill="#F5F0EB" opacity="0.14"/>
  <circle cx="243" cy="230" r="0.5" fill="#F5F0EB" opacity="0.16"/>
  <circle cx="326" cy="141" r="1.0" fill="#F5F0EB" opacity="0.23"/>
  <circle cx="320" cy="122" r="0.5" fill="#F5F0EB" opacity="0.12"/>
  <circle cx="146" cy="120" r="0.5" fill="#F5F0EB" opacity="0.18"/>
  <circle cx="276" cy="41" r="0.4" fill="#F5F0EB" opacity="0.16"/>
  <circle cx="355" cy="78" r="0.9" fill="#F5F0EB" opacity="0.12"/>
  <circle cx="208" cy="169" r="0.8" fill="#F5F0EB" opacity="0.20"/>
  <circle cx="105" cy="215" r="0.7" fill="#F5F0EB" opacity="0.29"/>
  <circle cx="356" cy="10" r="1.1" fill="#F5F0EB" opacity="0.29"/>
  <circle cx="194" cy="244" r="0.3" fill="#F5F0EB" opacity="0.19"/>
  <circle cx="385" cy="199" r="1.1" fill="#F5F0EB" opacity="0.34"/>
  <circle cx="214" cy="275" r="1.0" fill="#F5F0EB" opacity="0.24"/>
  <circle cx="308" cy="112" r="0.7" fill="#F5F0EB" opacity="0.17"/>
  <circle cx="248" cy="14" r="0.6" fill="#F5F0EB" opacity="0.27"/>
  <circle cx="207" cy="370" r="0.4" fill="#F5F0EB" opacity="0.22"/>
  <circle cx="65" cy="318" r="0.8" fill="#F5F0EB" opacity="0.33"/>
  <circle cx="303" cy="288" r="0.9" fill="#F5F0EB" opacity="0.12"/>
  <circle cx="219" cy="69" r="1.1" fill="#F5F0EB" opacity="0.15"/>
  <circle cx="133" cy="194" r="0.6" fill="#F5F0EB" opacity="0.21"/>
  <circle cx="172" cy="389" r="1.1" fill="#F5F0EB" opacity="0.17"/>
  <circle cx="215" cy="129" r="1.1" fill="#F5F0EB" opacity="0.22"/>
  <circle cx="383" cy="276" r="0.3" fill="#F5F0EB" opacity="0.34"/>
  <circle cx="114" cy="332" r="0.4" fill="#F5F0EB" opacity="0.34"/>
  <circle cx="20" cy="386" r="0.3" fill="#F5F0EB" opacity="0.16"/>
  <circle cx="10" cy="318" r="0.4" fill="#F5F0EB" opacity="0.13"/>
  <circle cx="342" cy="58" r="0.8" fill="#F5F0EB" opacity="0.15"/>
  <circle cx="358" cy="131" r="1.0" fill="#F5F0EB" opacity="0.14"/>
  <circle cx="310" cy="382" r="0.9" fill="#F5F0EB" opacity="0.29"/>
  <circle cx="83" cy="159" r="0.4" fill="#F5F0EB" opacity="0.11"/>
  <circle cx="159" cy="294" r="0.9" fill="#F5F0EB" opacity="0.34"/>
  <circle cx="203" cy="366" r="0.5" fill="#F5F0EB" opacity="0.25"/>
  <circle cx="321" cy="124" r="0.4" fill="#F5F0EB" opacity="0.29"/>
  <circle cx="350" cy="307" r="1.0" fill="#F5F0EB" opacity="0.30"/>
  <circle cx="289" cy="400" r="0.3" fill="#F5F0EB" opacity="0.23"/>
  <circle cx="338" cy="189" r="0.4" fill="#F5F0EB" opacity="0.26"/>
  <circle cx="6" cy="215" r="1.0" fill="#F5F0EB" opacity="0.13"/>
  <circle cx="185" cy="325" r="1.1" fill="#F5F0EB" opacity="0.21"/>
  <circle cx="78" cy="222" r="0.5" fill="#F5F0EB" opacity="0.23"/>
  <circle cx="333" cy="138" r="0.9" fill="#F5F0EB" opacity="0.33"/>
  <circle cx="396" cy="247" r="0.7" fill="#F5F0EB" opacity="0.31"/>
  <circle cx="303" cy="137" r="0.6" fill="#F5F0EB" opacity="0.16"/>
  <circle cx="44" cy="142" r="1.1" fill="#F5F0EB" opacity="0.16"/>
  <circle cx="237" cy="291" r="0.8" fill="#F5F0EB" opacity="0.19"/>
  <circle cx="14" cy="253" r="1.1" fill="#F5F0EB" opacity="0.15"/>
  <circle cx="108" cy="181" r="1.0" fill="#F5F0EB" opacity="0.19"/>
  <circle cx="305" cy="359" r="1.1" fill="#F5F0EB" opacity="0.24"/>
  <circle cx="264" cy="97" r="0.4" fill="#F5F0EB" opacity="0.28"/>
  <circle cx="250" cy="284" r="1.0" fill="#F5F0EB" opacity="0.27"/>
  <circle cx="330" cy="364" r="0.7" fill="#F5F0EB" opacity="0.30"/>
  <circle cx="47" cy="150" r="0.5" fill="#F5F0EB" opacity="0.27"/>
  <circle cx="156" cy="339" r="0.8" fill="#F5F0EB" opacity="0.22"/>
  <circle cx="271" cy="176" r="0.7" fill="#F5F0EB" opacity="0.29"/>
  <circle cx="169" cy="180" r="0.9" fill="#F5F0EB" opacity="0.17"/>
  <circle cx="128" cy="118" r="0.4" fill="#F5F0EB" opacity="0.15"/>
  <circle cx="61" cy="380" r="0.8" fill="#F5F0EB" opacity="0.29"/>
  <circle cx="94" cy="98" r="0.5" fill="#F5F0EB" opacity="0.22"/>
  <circle cx="370" cy="301" r="1.2" fill="#F5F0EB" opacity="0.23"/>
  <circle cx="144" cy="51" r="1.0" fill="#F5F0EB" opacity="0.17"/>
  <circle cx="184" cy="91" r="0.6" fill="#F5F0EB" opacity="0.28"/>
  <circle cx="64" cy="140" r="0.3" fill="#F5F0EB" opacity="0.11"/>
  <circle cx="149" cy="357" r="1.1" fill="#F5F0EB" opacity="0.26"/>
  <circle cx="385" cy="251" r="0.4" fill="#F5F0EB" opacity="0.10"/>
</svg>