<svg xmlns="http://www.w3.org/2000/svg" width="200" height="200" viewBox="0 0 200 200" fill="none">
  <line x1="7" y1="4" x2="7" y2="10" stroke="#F5F0EB" stroke-width="0.8" opacity="0.5"/>
  <line x1="4" y1="7" x2="10" y2="7" stroke="#F5F0EB" stroke-width="0.8" opacity="0.5"/>
  <line x1="7" y1="18" x2="7" y2="24" stroke="#F5F0EB" stroke-width="0.8" opacity="0.5"/>
  <line x1="4" y1="21" x2="10" y2="21" stroke="#F5F0EB" stroke-width="0.8" opacity="0.5"/>
  <line x1="7" y1="32" x2="7" y2="38" stroke="#F5F0EB" stroke-width="0.8" opacity="0.5"/>
  <line x1="4" y1="35" x2="10" y2="35" stroke="#F5F0EB" stroke-width="0.8" opacity="0.5"/>
  <line x1="7" y1="46" x2="7" y2="52" stroke="#F5F0EB" stroke-width="0.8" opacity="0.5"/>
  <line x1="4" y1="49" x2="10" y2="49" stroke="#F5F0EB" stroke-width="0.8" opacity="0.5"/>
  <line x1="7" y1="60" x2="7" y2="66" stroke="#F5F0EB" stroke-width="0.8" opacity="0.5"/>
  <line x1="4" y1="63" x2="10" y2="63" stroke="#F5F0EB" stroke-width="0.8" opacity="0.5"/>
  <line x1="7" y1="74" x2="7" y2="80" stroke="#F5F0EB" stroke-width="0.8" opacity="0.5"/>
  <line x1="4" y1="77" x2="10" y2="77" stroke="#F5F0EB" stroke-width="0.8" opacity="0.5"/>
  <line x1="7" y1="88" x2="7" y2="94" stroke="#F5F0EB" stroke-width="0.8" opacity="0.5"/>
  <line x1="4" y1="91" x2="10" y2="91" stroke="#F5F0EB" stroke-width="0.8" opacity="0.5"/>
  <line x1="7" y1="102" x2="7" y2="108" stroke="#F5F0EB" stroke-width="0.8" opacity="0.5"/>
  <line x1="4" y1="105" x2="10" y2="105" stroke="#F5F0EB" stroke-width="0.8" opacity="0.5"/>
  <line x1="7" y1="116" x2="7" y2="122" stroke="#F5F0EB" stroke-width="0.8" opacity="0.5"/>
  <line x1="4" y1="119" x2="10" y2="119" stroke="#F5F0EB" stroke-width="0.8" opacity="0.5"/>
  <line x1="7" y1="130" x2="7" y2="136" stroke="#F5F0EB" stroke-width="0.8" opacity="0.5"/>
  <line x1="4" y1="133" x2="10" y2="133" stroke="#F5F0EB" stroke-width="0.8" opacity="0.5"/>
  <line x1="7" y1="144" x2="7" y2="150" stroke="#F5F0EB" stroke-width="0.8" opacity="0.5"/>
  <line x1="4" y1="147" x2="10" y2="147" stroke="#F5F0EB" stroke-width="0.8" opacity="0.5"/>
  <line x1="7" y1="158" x2="7" y2="164" stroke="#F5F0EB" stroke-width="0.8" opacity="0.5"/>
  <line x1="4" y1="161" x2="10" y2="161" stroke="#F5F0EB" stroke-width="0.8" opacity="0.5"/>
  <line x1="7" y1="172" x2="7" y2="178" stroke="#F5F0EB" stroke-width="0.8" opacity="0.5"/>
  <line x1="4" y1="175" x2="10" y2="175" stroke="#F5F0EB" stroke-width="0.8" opacity="0.5"/>
  <line x1="7" y1="186" x2="7" y2="192" stroke="#F5F0EB" stroke-width="0.8" opacity="0.5"/>
  <line x1="4" y1="189" x2="10" y2="189" stroke="#F5F0EB" stroke-width="0.8" opacity="0.5"/>
  <line x1="21" y1="4" x2="21" y2="10" stroke="#F5F0EB" stroke-width="0.8" opacity="0.5"/>
  <line x1="18" y1="7" x2="24" y2="7" stroke="#F5F0EB" stroke-width="0.8" opacity="0.5"/>
  <line x1="21" y1="18" x2="21" y2="24" stroke="#F5F0EB" stroke-width="0.8" opacity="0.5"/>
  <line x1="18" y1="21" x2="24" y2="21" stroke="#F5F0EB" stroke-width="0.8" opacity="0.5"/>
  <line x1="21" y1="32" x2="21" y2="38" stroke="#F5F0EB" stroke-width="0.8" opacity="0.5"/>
  <line x1="18" y1="35" x2="24" y2="35" stroke="#F5F0EB" stroke-width="0.8" opacity="0.5"/>
  <line x1="21" y1="46" x2="21" y2="52" stroke="#F5F0EB" stroke-width="0.8" opacity="0.5"/>
  <line x1="18" y1="49" x2="24" y2="49" stroke="#F5F0EB" stroke-width="0.8" opacity="0.5"/>
  <line x1="21" y1="60" x2="21" y2="66" stroke="#F5F0EB" stroke-width="0.8" opacity="0.5"/>
  <line x1="18" y1="63" x2="24" y2="63" stroke="#F5F0EB" stroke-width="0.8" opacity="0.5"/>
  <line x1="21" y1="74" x2="21" y2="80" stroke="#F5F0EB" stroke-width="0.8" opacity="0.5"/>
  <line x1="18" y1="77" x2="24" y2="77" stroke="#F5F0EB" stroke-width="0.8" opacity="0.5"/>
  <line x1="21" y1="88" x2="21" y2="94" stroke="#F5F0EB" stroke-width="0.8" opacity="0.5"/>
  <line x1="18" y1="91" x2="24" y2="91" stroke="#F5F0EB" stroke-width="0.8" opacity="0.5"/>
  <line x1="21" y1="102" x2="21" y2="108" stroke="#F5F0EB" stroke-width="0.8" opacity="0.5"/>
  <line x1="18" y1="105" x2="24" y2="105" stroke="#F5F0EB" stroke-width="0.8" opacity="0.5"/>
  <line x1="21" y1="116" x2="21" y2="122" stroke="#F5F0EB" stroke-width="0.8" opacity="0.5"/>
  <line x1="18" y1="119" x2="24" y2="119" stroke="#F5F0EB" stroke-width="0.8" opacity="0.5"/>
  <line x1="21" y1="130" x2="21" y2="136" stroke="#F5F0EB" stroke-width="0.8" opacity="0.5"/>
  <line x1="18" y1="133" x2="24" y2="133" stroke="#F5F0EB" stroke-width="0.8" opacity="0.5"/>
  <line x1="21" y1="144" x2="21" y2="150" stroke="#F5F0EB" stroke-width="0.8" opacity="0.5"/>
  <line x1="18" y1="147" x2="24" y2="147" stroke="#F5F0EB" stroke-width="0.8" opacity="0.5"/>
  <line x1="21" y1="158" x2="21" y2="164" stroke="#F5F0EB" stroke-width="0.8" opacity="0.5"/>
  <line x1="18" y1="161" x2="24" y2="161" stroke="#F5F0EB" stroke-width="0.8" opacity="0.5"/>
  <line x1="21" y1="172" x2="21" y2="178" stroke="#F5F0EB" stroke-width="0.8" opacity="0.5"/>
  <line x1="18" y1="175" x2="24" y2="175" stroke="#F5F0EB" stroke-width="0.8" opacity="0.5"/>
  <line x1="21" y1="186" x2="21" y2="192" stroke="#F5F0EB" stroke-width="0.8" opacity="0.5"/>
  <line x1="18" y1="189" x2="24" y2="189" stroke="#F5F0EB" stroke-width="0.8" opacity="0.5"/>
  <line x1="35" y1="4" x2="35" y2="10" stroke="#F5F0EB" stroke-width="0.8" opacity="0.5"/>
  <line x1="32" y1="7" x2="38" y2="7" stroke="#F5F0EB" stroke-width="0.8" opacity="0.5"/>
  <line x1="35" y1="18" x2="35" y2="24" stroke="#F5F0EB" stroke-width="0.8" opacity="0.5"/>
  <line x1="32" y1="21" x2="38" y2="21" stroke="#F5F0EB" stroke-width="0.8" opacity="0.5"/>
  <line x1="35" y1="32" x2="35" y2="38" stroke="#F5F0EB" stroke-width="0.8" opacity="0.5"/>
  <line x1="32" y1="35" x2="38" y2="35" stroke="#F5F0EB" stroke-width="0.8" opacity="0.5"/>
  <line x1="35" y1="46" x2="35" y2="52" stroke="#F5F0EB" stroke-width="0.8" opacity="0.5"/>
  <line x1="32" y1="49" x2="38" y2="49" stroke="#F5F0EB" stroke-width="0.8" opacity="0.5"/>
  <line x1="35" y1="60" x2="35" y2="66" stroke="#F5F0EB" stroke-width="0.8" opacity="0.5"/>
  <line x1="32" y1="63" x2="38" y2="63" stroke="#F5F0EB" stroke-width="0.8" opacity="0.5"/>
  <line x1="35" y1="74" x2="35" y2="80" stroke="#F5F0EB" stroke-width="0.8" opacity="0.5"/>
  <line x1="32" y1="77" x2="38" y2="77" stroke="#F5F0EB" stroke-width="0.8" opacity="0.5"/>
  <line x1="35" y1="88" x2="35" y2="94" stroke="#F5F0EB" stroke-width="0.8" opacity="0.5"/>
  <line x1="32" y1="91" x2="38" y2="91" stroke="#F5F0EB" stroke-width="0.8" opacity="0.5"/>
  <line x1="35" y1="102" x2="35" y2="108" stroke="#F5F0EB" stroke-width="0.8" opacity="0.5"/>
  <line x1="32" y1="105" x2="38" y2="105" stroke="#F5F0EB" stroke-width="0.8" opacity="0.5"/>
  <line x1="35" y1="116" x2="35" y2="122" stroke="#F5F0EB" stroke-width="0.8" opacity="0.5"/>
  <line x1="32" y1="119" x2="38" y2="119" stroke="#F5F0EB" stroke-width="0.8" opacity="0.5"/>
  <line x1="35" y1="130" x2="35" y2="136" stroke="#F5F0EB" stroke-width="0.8" opacity="0.5"/>
  <line x1="32" y1="133" x2="38" y2="133" stroke="#F5F0EB" stroke-width="0.8" opacity="0.5"/>
  <line x1="35" y1="144" x2="35" y2="150" stroke="#F5F0EB" stroke-width="0.8" opacity="0.5"/>
  <line x1="32" y1="147" x2="38" y2="147" stroke="#F5F0EB" stroke-width="0.8" opacity="0.5"/>
  <line x1="35" y1="158" x2="35" y2="164" stroke="#F5F0EB" stroke-width="0.8" opacity="0.5"/>
  <line x1="32" y1="161" x2="38" y2="161" stroke="#F5F0EB" stroke-width="0.8" opacity="0.5"/>
  <line x1="35" y1="172" x2="35" y2="178" stroke="#F5F0EB" stroke-width="0.8" opacity="0.5"/>
  <line x1="32" y1="175" x2="38" y2="175" stroke="#F5F0EB" stroke-width="0.8" opacity="0.5"/>
  <line x1="35" y1="186" x2="35" y2="192" stroke="#F5F0EB" stroke-width="0.8" opacity="0.5"/>
  <line x1="32" y1="189" x2="38" y2="189" stroke="#F5F0EB" stroke-width="0.8" opacity="0.5"/>
  <line x1="49" y1="4" x2="49" y2="10" stroke="#F5F0EB" stroke-width="0.8" opacity="0.5"/>
  <line x1="46" y1="7" x2="52" y2="7" stroke="#F5F0EB" stroke-width="0.8" opacity="0.5"/>
  <line x1="49" y1="18" x2="49" y2="24" stroke="#F5F0EB" stroke-width="0.8" opacity="0.5"/>
  <line x1="46" y1="21" x2="52" y2="21" stroke="#F5F0EB" stroke-width="0.8" opacity="0.5"/>
  <line x1="49" y1="32" x2="49" y2="38" stroke="#F5F0EB" stroke-width="0.8" opacity="0.5"/>
  <line x1="46" y1="35" x2="52" y2="35" stroke="#F5F0EB" stroke-width="0.8" opacity="0.5"/>
  <line x1="49" y1="46" x2="49" y2="52" stroke="#F5F0EB" stroke-width="0.8" opacity="0.5"/>
  <line x1="46" y1="49" x2="52" y2="49" stroke="#F5F0EB" stroke-width="0.8" opacity="0.5"/>
  <line x1="49" y1="60" x2="49" y2="66" stroke="#F5F0EB" stroke-width="0.8" opacity="0.5"/>
  <line x1="46" y1="63" x2="52" y2="63" stroke="#F5F0EB" stroke-width="0.8" opacity="0.5"/>
  <line x1="49" y1="74" x2="49" y2="80" stroke="#F5F0EB" stroke-width="0.8" opacity="0.5"/>
  <line x1="46" y1="77" x2="52" y2="77" stroke="#F5F0EB" stroke-width="0.8" opacity="0.5"/>
  <line x1="49" y1="88" x2="49" y2="94" stroke="#F5F0EB" stroke-width="0.8" opacity="0.5"/>
  <line x1="46" y1="91" x2="52" y2="91" stroke="#F5F0EB" stroke-width="0.8" opacity="0.5"/>
  <line x1="49" y1="102" x2="49" y2="108" stroke="#F5F0EB" stroke-width="0.8" opacity="0.5"/>
  <line x1="46" y1="105" x2="52" y2="105" stroke="#F5F0EB" stroke-width="0.8" opacity="0.5"/>
  <line x1="49" y1="116" x2="49" y2="122" stroke="#F5F0EB" stroke-width="0.8" opacity="0.5"/>
  <line x1="46" y1="119" x2="52" y2="119" stroke="#F5F0EB" stroke-width="0.8" opacity="0.5"/>
  <line x1="49" y1="130" x2="49" y2="136" stroke="#F5F0EB" stroke-width="0.8" opacity="0.5"/>
  <line x1="46" y1="133" x2="52" y2="133" stroke="#F5F0EB" stroke-width="0.8" opacity="0.5"/>
  <line x1="49" y1="144" x2="49" y2="150" stroke="#F5F0EB" stroke-width="0.8" opacity="0.5"/>
  <line x1="46" y1="147" x2="52" y2="147" stroke="#F5F0EB" stroke-width="0.8" opacity="0.5"/>
  <line x1="49" y1="158" x2="49" y2="164" stroke="#F5F0EB" stroke-width="0.8" opacity="0.5"/>
  <line x1="46" y1="161" x2="52" y2="161" stroke="#F5F0EB" stroke-width="0.8" opacity="0.5"/>
  <line x1="49" y1="172" x2="49" y2="178" stroke="#F5F0EB" stroke-width="0.8" opacity="0.5"/>
  <line x1="46" y1="175" x2="52" y2="175" stroke="#F5F0EB" stroke-width="0.8" opacity="0.5"/>
  <line x1="49" y1="186" x2="49" y2="192" stroke="#F5F0EB" stroke-width="0.8" opacity="0.5"/>
  <line x1="46" y1="189" x2="52" y2="189" stroke="#F5F0EB" stroke-width="0.8" opacity="0.5"/>
  <line x1="63" y1="4" x2="63" y2="10" stroke="#F5F0EB" stroke-width="0.8" opacity="0.5"/>
  <line x1="60" y1="7" x2="66" y2="7" stroke="#F5F0EB" stroke-width="0.8" opacity="0.5"/>
  <line x1="63" y1="18" x2="63" y2="24" stroke="#F5F0EB" stroke-width="0.8" opacity="0.5"/>
  <line x1="60" y1="21" x2="66" y2="21" stroke="#F5F0EB" stroke-width="0.8" opacity="0.5"/>
  <line x1="63" y1="32" x2="63" y2="38" stroke="#F5F0EB" stroke-width="0.8" opacity="0.5"/>
  <line x1="60" y1="35" x2="66" y2="35" stroke="#F5F0EB" stroke-width="0.8" opacity="0.5"/>
  <line x1="63" y1="46" x2="63" y2="52" stroke="#F5F0EB" stroke-width="0.8" opacity="0.5"/>
  <line x1="60" y1="49" x2="66" y2="49" stroke="#F5F0EB" stroke-width="0.8" opacity="0.5"/>
  <line x1="63" y1="60" x2="63" y2="66" stroke="#F5F0EB" stroke-width="0.8" opacity="0.5"/>
  <line x1="60" y1="63" x2="66" y2="63" stroke="#F5F0EB" stroke-width="0.8" opacity="0.5"/>
  <line x1="63" y1="74" x2="63" y2="80" stroke="#F5F0EB" stroke-width="0.8" opacity="0.5"/>
  <line x1="60" y1="77" x2="66" y2="77" stroke="#F5F0EB" stroke-width="0.8" opacity="0.5"/>
  <line x1="63" y1="88" x2="63" y2="94" stroke="#F5F0EB" stroke-width="0.8" opacity="0.5"/>
  <line x1="60" y1="91" x2="66" y2="91" stroke="#F5F0EB" stroke-width="0.8" opacity="0.5"/>
  <line x1="63" y1="102" x2="63" y2="108" stroke="#F5F0EB" stroke-width="0.8" opacity="0.5"/>
  <line x1="60" y1="105" x2="66" y2="105" stroke="#F5F0EB" stroke-width="0.8" opacity="0.5"/>
  <line x1="63" y1="116" x2="63" y2="122" stroke="#F5F0EB" stroke-width="0.8" opacity="0.5"/>
  <line x1="60" y1="119" x2="66" y2="119" stroke="#F5F0EB" stroke-width="0.8" opacity="0.5"/>
  <line x1="63" y1="130" x2="63" y2="136" stroke="#F5F0EB" stroke-width="0.8" opacity="0.5"/>
  <line x1="60" y1="133" x2="66" y2="133" stroke="#F5F0EB" stroke-width="0.8" opacity="0.5"/>
  <line x1="63" y1="144" x2="63" y2="150" stroke="#F5F0EB" stroke-width="0.8" opacity="0.5"/>
  <line x1="60" y1="147" x2="66" y2="147" stroke="#F5F0EB" stroke-width="0.8" opacity="0.5"/>
  <line x1="63" y1="158" x2="63" y2="164" stroke="#F5F0EB" stroke-width="0.8" opacity="0.5"/>
  <line x1="60" y1="161" x2="66" y2="161" stroke="#F5F0EB" stroke-width="0.8" opacity="0.5"/>
  <line x1="63" y1="172" x2="63" y2="178" stroke="#F5F0EB" stroke-width="0.8" opacity="0.5"/>
  <line x1="60" y1="175" x2="66" y2="175" stroke="#F5F0EB" stroke-width="0.8" opacity="0.5"/>
  <line x1="63" y1="186" x2="63" y2="192" stroke="#F5F0EB" stroke-width="0.8" opacity="0.5"/>
  <line x1="60" y1="189" x2="66" y2="189" stroke="#F5F0EB" stroke-width="0.8" opacity="0.5"/>
  <line x1="77" y1="4" x2="77" y2="10" stroke="#F5F0EB" stroke-width="0.8" opacity="0.5"/>
  <line x1="74" y1="7" x2="80" y2="7" stroke="#F5F0EB" stroke-width="0.8" opacity="0.5"/>
  <line x1="77" y1="18" x2="77" y2="24" stroke="#F5F0EB" stroke-width="0.8" opacity="0.5"/>
  <line x1="74" y1="21" x2="80" y2="21" stroke="#F5F0EB" stroke-width="0.8" opacity="0.5"/>
  <line x1="77" y1="32" x2="77" y2="38" stroke="#F5F0EB" stroke-width="0.8" opacity="0.5"/>
  <line x1="74" y1="35" x2="80" y2="35" stroke="#F5F0EB" stroke-width="0.8" opacity="0.5"/>
  <line x1="77" y1="46" x2="77" y2="52" stroke="#F5F0EB" stroke-width="0.8" opacity="0.5"/>
  <line x1="74" y1="49" x2="80" y2="49" stroke="#F5F0EB" stroke-width="0.8" opacity="0.5"/>
  <line x1="77" y1="60" x2="77" y2="66" stroke="#F5F0EB" stroke-width="0.8" opacity="0.5"/>
  <line x1="74" y1="63" x2="80" y2="63" stroke="#F5F0EB" stroke-width="0.8" opacity="0.5"/>
  <line x1="77" y1="74" x2="77" y2="80" stroke="#F5F0EB" stroke-width="0.8" opacity="0.5"/>
  <line x1="74" y1="77" x2="80" y2="77" stroke="#F5F0EB" stroke-width="0.8" opacity="0.5"/>
  <line x1="77" y1="88" x2="77" y2="94" stroke="#F5F0EB" stroke-width="0.8" opacity="0.5"/>
  <line x1="74" y1="91" x2="80" y2="91" stroke="#F5F0EB" stroke-width="0.8" opacity="0.5"/>
  <line x1="77" y1="102" x2="77" y2="108" stroke="#F5F0EB" stroke-width="0.8" opacity="0.5"/>
  <line x1="74" y1="105" x2="80" y2="105" stroke="#F5F0EB" stroke-width="0.8" opacity="0.5"/>
  <line x1="77" y1="116" x2="77" y2="122" stroke="#F5F0EB" stroke-width="0.8" opacity="0.5"/>
  <line x1="74" y1="119" x2="80" y2="119" stroke="#F5F0EB" stroke-width="0.8" opacity="0.5"/>
  <line x1="77" y1="130" x2="77" y2="136" stroke="#F5F0EB" stroke-width="0.8" opacity="0.5"/>
  <line x1="74" y1="133" x2="80" y2="133" stroke="#F5F0EB" stroke-width="0.8" opacity="0.5"/>
  <line x1="77" y1="144" x2="77" y2="150" stroke="#F5F0EB" stroke-width="0.8" opacity="0.5"/>
  <line x1="74" y1="147" x2="80" y2="147" stroke="#F5F0EB" stroke-width="0.8" opacity="0.5"/>
  <line x1="77" y1="158" x2="77" y2="164" stroke="#F5F0EB" stroke-width="0.8" opacity="0.5"/>
  <line x1="74" y1="161" x2="80" y2="161" stroke="#F5F0EB" stroke-width="0.8" opacity="0.5"/>
  <line x1="77" y1="172" x2="77" y2="178" stroke="#F5F0EB" stroke-width="0.8" opacity="0.5"/>
  <line x1="74" y1="175" x2="80" y2="175" stroke="#F5F0EB" stroke-width="0.8" opacity="0.5"/>
  <line x1="77" y1="186" x2="77" y2="192" stroke="#F5F0EB" stroke-width="0.8" opacity="0.5"/>
  <line x1="74" y1="189" x2="80" y2="189" stroke="#F5F0EB" stroke-width="0.8" opacity="0.5"/>
  <line x1="91" y1="4" x2="91" y2="10" stroke="#F5F0EB" stroke-width="0.8" opacity="0.5"/>
  <line x1="88" y1="7" x2="94" y2="7" stroke="#F5F0EB" stroke-width="0.8" opacity="0.5"/>
  <line x1="91" y1="18" x2="91" y2="24" stroke="#F5F0EB" stroke-width="0.8" opacity="0.5"/>
  <line x1="88" y1="21" x2="94" y2="21" stroke="#F5F0EB" stroke-width="0.8" opacity="0.5"/>
  <line x1="91" y1="32" x2="91" y2="38" stroke="#F5F0EB" stroke-width="0.8" opacity="0.5"/>
  <line x1="88" y1="35" x2="94" y2="35" stroke="#F5F0EB" stroke-width="0.8" opacity="0.5"/>
  <line x1="91" y1="46" x2="91" y2="52" stroke="#F5F0EB" stroke-width="0.8" opacity="0.5"/>
  <line x1="88" y1="49" x2="94" y2="49" stroke="#F5F0EB" stroke-width="0.8" opacity="0.5"/>
  <line x1="91" y1="60" x2="91" y2="66" stroke="#F5F0EB" stroke-width="0.8" opacity="0.5"/>
  <line x1="88" y1="63" x2="94" y2="63" stroke="#F5F0EB" stroke-width="0.8" opacity="0.5"/>
  <line x1="91" y1="74" x2="91" y2="80" stroke="#F5F0EB" stroke-width="0.8" opacity="0.5"/>
  <line x1="88" y1="77" x2="94" y2="77" stroke="#F5F0EB" stroke-width="0.8" opacity="0.5"/>
  <line x1="91" y1="88" x2="91" y2="94" stroke="#F5F0EB" stroke-width="0.8" opacity="0.5"/>
  <line x1="88" y1="91" x2="94" y2="91" stroke="#F5F0EB" stroke-width="0.8" opacity="0.5"/>
  <line x1="91" y1="102" x2="91" y2="108" stroke="#F5F0EB" stroke-width="0.8" opacity="0.5"/>
  <line x1="88" y1="105" x2="94" y2="105" stroke="#F5F0EB" stroke-width="0.8" opacity="0.5"/>
  <line x1="91" y1="116" x2="91" y2="122" stroke="#F5F0EB" stroke-width="0.8" opacity="0.5"/>
  <line x1="88" y1="119" x2="94" y2="119" stroke="#F5F0EB" stroke-width="0.8" opacity="0.5"/>
  <line x1="91" y1="130" x2="91" y2="136" stroke="#F5F0EB" stroke-width="0.8" opacity="0.5"/>
  <line x1="88" y1="133" x2="94" y2="133" stroke="#F5F0EB" stroke-width="0.8" opacity="0.5"/>
  <line x1="91" y1="144" x2="91" y2="150" stroke="#F5F0EB" stroke-width="0.8" opacity="0.5"/>
  <line x1="88" y1="147" x2="94" y2="147" stroke="#F5F0EB" stroke-width="0.8" opacity="0.5"/>
  <line x1="91" y1="158" x2="91" y2="164" stroke="#F5F0EB" stroke-width="0.8" opacity="0.5"/>
  <line x1="88" y1="161" x2="94" y2="161" stroke="#F5F0EB" stroke-width="0.8" opacity="0.5"/>
  <line x1="91" y1="172" x2="91" y2="178" stroke="#F5F0EB" stroke-width="0.8" opacity="0.5"/>
  <line x1="88" y1="175" x2="94" y2="175" stroke="#F5F0EB" stroke-width="0.8" opacity="0.5"/>
  <line x1="91" y1="186" x2="91" y2="192" stroke="#F5F0EB" stroke-width="0.8" opacity="0.5"/>
  <line x1="88" y1="189" x2="94" y2="189" stroke="#F5F0EB" stroke-width="0.8" opacity="0.5"/>
  <line x1="105" y1="4" x2="105" y2="10" stroke="#F5F0EB" stroke-width="0.8" opacity="0.5"/>
  <line x1="102" y1="7" x2="108" y2="7" stroke="#F5F0EB" stroke-width="0.8" opacity="0.5"/>
  <line x1="105" y1="18" x2="105" y2="24" stroke="#F5F0EB" stroke-width="0.8" opacity="0.5"/>
  <line x1="102" y1="21" x2="108" y2="21" stroke="#F5F0EB" stroke-width="0.8" opacity="0.5"/>
  <line x1="105" y1="32" x2="105" y2="38" stroke="#F5F0EB" stroke-width="0.8" opacity="0.5"/>
  <line x1="102" y1="35" x2="108" y2="35" stroke="#F5F0EB" stroke-width="0.8" opacity="0.5"/>
  <line x1="105" y1="46" x2="105" y2="52" stroke="#F5F0EB" stroke-width="0.8" opacity="0.5"/>
  <line x1="102" y1="49" x2="108" y2="49" stroke="#F5F0EB" stroke-width="0.8" opacity="0.5"/>
  <line x1="105" y1="60" x2="105" y2="66" stroke="#F5F0EB" stroke-width="0.8" opacity="0.5"/>
  <line x1="102" y1="63" x2="108" y2="63" stroke="#F5F0EB" stroke-width="0.8" opacity="0.5"/>
  <line x1="105" y1="74" x2="105" y2="80" stroke="#F5F0EB" stroke-width="0.8" opacity="0.5"/>
  <line x1="102" y1="77" x2="108" y2="77" stroke="#F5F0EB" stroke-width="0.8" opacity="0.5"/>
  <line x1="105" y1="88" x2="105" y2="94" stroke="#F5F0EB" stroke-width="0.8" opacity="0.5"/>
  <line x1="102" y1="91" x2="108" y2="91" stroke="#F5F0EB" stroke-width="0.8" opacity="0.5"/>
  <line x1="105" y1="102" x2="105" y2="108" stroke="#F5F0EB" stroke-width="0.8" opacity="0.5"/>
  <line x1="102" y1="105" x2="108" y2="105" stroke="#F5F0EB" stroke-width="0.8" opacity="0.5"/>
  <line x1="105" y1="116" x2="105" y2="122" stroke="#F5F0EB" stroke-width="0.8" opacity="0.5"/>
  <line x1="102" y1="119" x2="108" y2="119" stroke="#F5F0EB" stroke-width="0.8" opacity="0.5"/>
  <line x1="105" y1="130" x2="105" y2="136" stroke="#F5F0EB" stroke-width="0.8" opacity="0.5"/>
  <line x1="102" y1="133" x2="108" y2="133" stroke="#F5F0EB" stroke-width="0.8" opacity="0.5"/>
  <line x1="105" y1="144" x2="105" y2="150" stroke="#F5F0EB" stroke-width="0.8" opacity="0.5"/>
  <line x1="102" y1="147" x2="108" y2="147" stroke="#F5F0EB" stroke-width="0.8" opacity="0.5"/>
  <line x1="105" y1="158" x2="105" y2="164" stroke="#F5F0EB" stroke-width="0.8" opacity="0.5"/>
  <line x1="102" y1="161" x2="108" y2="161" stroke="#F5F0EB" stroke-width="0.8" opacity="0.5"/>
  <line x1="105" y1="172" x2="105" y2="178" stroke="#F5F0EB" stroke-width="0.8" opacity="0.5"/>
  <line x1="102" y1="175" x2="108" y2="175" stroke="#F5F0EB" stroke-width="0.8" opacity="0.5"/>
  <line x1="105" y1="186" x2="105" y2="192" stroke="#F5F0EB" stroke-width="0.8" opacity="0.5"/>
  <line x1="102" y1="189" x2="108" y2="189" stroke="#F5F0EB" stroke-width="0.8" opacity="0.5"/>
  <line x1="119" y1="4" x2="119" y2="10" stroke="#F5F0EB" stroke-width="0.8" opacity="0.5"/>
  <line x1="116" y1="7" x2="122" y2="7" stroke="#F5F0EB" stroke-width="0.8" opacity="0.5"/>
  <line x1="119" y1="18" x2="119" y2="24" stroke="#F5F0EB" stroke-width="0.8" opacity="0.5"/>
  <line x1="116" y1="21" x2="122" y2="21" stroke="#F5F0EB" stroke-width="0.8" opacity="0.5"/>
  <line x1="119" y1="32" x2="119" y2="38" stroke="#F5F0EB" stroke-width="0.8" opacity="0.5"/>
  <line x1="116" y1="35" x2="122" y2="35" stroke="#F5F0EB" stroke-width="0.8" opacity="0.5"/>
  <line x1="119" y1="46" x2="119" y2="52" stroke="#F5F0EB" stroke-width="0.8" opacity="0.5"/>
  <line x1="116" y1="49" x2="122" y2="49" stroke="#F5F0EB" stroke-width="0.8" opacity="0.5"/>
  <line x1="119" y1="60" x2="119" y2="66" stroke="#F5F0EB" stroke-width="0.8" opacity="0.5"/>
  <line x1="116" y1="63" x2="122" y2="63" stroke="#F5F0EB" stroke-width="0.8" opacity="0.5"/>
  <line x1="119" y1="74" x2="119" y2="80" stroke="#F5F0EB" stroke-width="0.8" opacity="0.5"/>
  <line x1="116" y1="77" x2="122" y2="77" stroke="#F5F0EB" stroke-width="0.8" opacity="0.5"/>
  <line x1="119" y1="88" x2="119" y2="94" stroke="#F5F0EB" stroke-width="0.8" opacity="0.5"/>
  <line x1="116" y1="91" x2="122" y2="91" stroke="#F5F0EB" stroke-width="0.8" opacity="0.5"/>
  <line x1="119" y1="102" x2="119" y2="108" stroke="#F5F0EB" stroke-width="0.8" opacity="0.5"/>
  <line x1="116" y1="105" x2="122" y2="105" stroke="#F5F0EB" stroke-width="0.8" opacity="0.5"/>
  <line x1="119" y1="116" x2="119" y2="122" stroke="#F5F0EB" stroke-width="0.8" opacity="0.5"/>
  <line x1="116" y1="119" x2="122" y2="119" stroke="#F5F0EB" stroke-width="0.8" opacity="0.5"/>
  <line x1="119" y1="130" x2="119" y2="136" stroke="#F5F0EB" stroke-width="0.8" opacity="0.5"/>
  <line x1="116" y1="133" x2="122" y2="133" stroke="#F5F0EB" stroke-width="0.8" opacity="0.5"/>
  <line x1="119" y1="144" x2="119" y2="150" stroke="#F5F0EB" stroke-width="0.8" opacity="0.5"/>
  <line x1="116" y1="147" x2="122" y2="147" stroke="#F5F0EB" stroke-width="0.8" opacity="0.5"/>
  <line x1="119" y1="158" x2="119" y2="164" stroke="#F5F0EB" stroke-width="0.8" opacity="0.5"/>
  <line x1="116" y1="161" x2="122" y2="161" stroke="#F5F0EB" stroke-width="0.8" opacity="0.5"/>
  <line x1="119" y1="172" x2="119" y2="178" stroke="#F5F0EB" stroke-width="0.8" opacity="0.5"/>
  <line x1="116" y1="175" x2="122" y2="175" stroke="#F5F0EB" stroke-width="0.8" opacity="0.5"/>
  <line x1="119" y1="186" x2="119" y2="192" stroke="#F5F0EB" stroke-width="0.8" opacity="0.5"/>
  <line x1="116" y1="189" x2="122" y2="189" stroke="#F5F0EB" stroke-width="0.8" opacity="0.5"/>
  <line x1="133" y1="4" x2="133" y2="10" stroke="#F5F0EB" stroke-width="0.8" opacity="0.5"/>
  <line x1="130" y1="7" x2="136" y2="7" stroke="#F5F0EB" stroke-width="0.8" opacity="0.5"/>
  <line x1="133" y1="18" x2="133" y2="24" stroke="#F5F0EB" stroke-width="0.8" opacity="0.5"/>
  <line x1="130" y1="21" x2="136" y2="21" stroke="#F5F0EB" stroke-width="0.8" opacity="0.5"/>
  <line x1="133" y1="32" x2="133" y2="38" stroke="#F5F0EB" stroke-width="0.8" opacity="0.5"/>
  <line x1="130" y1="35" x2="136" y2="35" stroke="#F5F0EB" stroke-width="0.8" opacity="0.5"/>
  <line x1="133" y1="46" x2="133" y2="52" stroke="#F5F0EB" stroke-width="0.8" opacity="0.5"/>
  <line x1="130" y1="49" x2="136" y2="49" stroke="#F5F0EB" stroke-width="0.8" opacity="0.5"/>
  <line x1="133" y1="60" x2="133" y2="66" stroke="#F5F0EB" stroke-width="0.8" opacity="0.5"/>
  <line x1="130" y1="63" x2="136" y2="63" stroke="#F5F0EB" stroke-width="0.8" opacity="0.5"/>
  <line x1="133" y1="74" x2="133" y2="80" stroke="#F5F0EB" stroke-width="0.8" opacity="0.5"/>
  <line x1="130" y1="77" x2="136" y2="77" stroke="#F5F0EB" stroke-width="0.8" opacity="0.5"/>
  <line x1="133" y1="88" x2="133" y2="94" stroke="#F5F0EB" stroke-width="0.8" opacity="0.5"/>
  <line x1="130" y1="91" x2="136" y2="91" stroke="#F5F0EB" stroke-width="0.8" opacity="0.5"/>
  <line x1="133" y1="102" x2="133" y2="108" stroke="#F5F0EB" stroke-width="0.8" opacity="0.5"/>
  <line x1="130" y1="105" x2="136" y2="105" stroke="#F5F0EB" stroke-width="0.8" opacity="0.5"/>
  <line x1="133" y1="116" x2="133" y2="122" stroke="#F5F0EB" stroke-width="0.8" opacity="0.5"/>
  <line x1="130" y1="119" x2="136" y2="119" stroke="#F5F0EB" stroke-width="0.8" opacity="0.5"/>
  <line x1="133" y1="130" x2="133" y2="136" stroke="#F5F0EB" stroke-width="0.8" opacity="0.5"/>
  <line x1="130" y1="133" x2="136" y2="133" stroke="#F5F0EB" stroke-width="0.8" opacity="0.5"/>
  <line x1="133" y1="144" x2="133" y2="150" stroke="#F5F0EB" stroke-width="0.8" opacity="0.5"/>
  <line x1="130" y1="147" x2="136" y2="147" stroke="#F5F0EB" stroke-width="0.8" opacity="0.5"/>
  <line x1="133" y1="158" x2="133" y2="164" stroke="#F5F0EB" stroke-width="0.8" opacity="0.5"/>
  <line x1="130" y1="161" x2="136" y2="161" stroke="#F5F0EB" stroke-width="0.8" opacity="0.5"/>
  <line x1="133" y1="172" x2="133" y2="178" stroke="#F5F0EB" stroke-width="0.8" opacity="0.5"/>
  <line x1="130" y1="175" x2="136" y2="175" stroke="#F5F0EB" stroke-width="0.8" opacity="0.5"/>
  <line x1="133" y1="186" x2="133" y2="192" stroke="#F5F0EB" stroke-width="0.8" opacity="0.5"/>
  <line x1="130" y1="189" x2="136" y2="189" stroke="#F5F0EB" stroke-width="0.8" opacity="0.5"/>
  <line x1="147" y1="4" x2="147" y2="10" stroke="#F5F0EB" stroke-width="0.8" opacity="0.5"/>
  <line x1="144" y1="7" x2="150" y2="7" stroke="#F5F0EB" stroke-width="0.8" opacity="0.5"/>
  <line x1="147" y1="18" x2="147" y2="24" stroke="#F5F0EB" stroke-width="0.8" opacity="0.5"/>
  <line x1="144" y1="21" x2="150" y2="21" stroke="#F5F0EB" stroke-width="0.8" opacity="0.5"/>
  <line x1="147" y1="32" x2="147" y2="38" stroke="#F5F0EB" stroke-width="0.8" opacity="0.5"/>
  <line x1="144" y1="35" x2="150" y2="35" stroke="#F5F0EB" stroke-width="0.8" opacity="0.5"/>
  <line x1="147" y1="46" x2="147" y2="52" stroke="#F5F0EB" stroke-width="0.8" opacity="0.5"/>
  <line x1="144" y1="49" x2="150" y2="49" stroke="#F5F0EB" stroke-width="0.8" opacity="0.5"/>
  <line x1="147" y1="60" x2="147" y2="66" stroke="#F5F0EB" stroke-width="0.8" opacity="0.5"/>
  <line x1="144" y1="63" x2="150" y2="63" stroke="#F5F0EB" stroke-width="0.8" opacity="0.5"/>
  <line x1="147" y1="74" x2="147" y2="80" stroke="#F5F0EB" stroke-width="0.8" opacity="0.5"/>
  <line x1="144" y1="77" x2="150" y2="77" stroke="#F5F0EB" stroke-width="0.8" opacity="0.5"/>
  <line x1="147" y1="88" x2="147" y2="94" stroke="#F5F0EB" stroke-width="0.8" opacity="0.5"/>
  <line x1="144" y1="91" x2="150" y2="91" stroke="#F5F0EB" stroke-width="0.8" opacity="0.5"/>
  <line x1="147" y1="102" x2="147" y2="108" stroke="#F5F0EB" stroke-width="0.8" opacity="0.5"/>
  <line x1="144" y1="105" x2="150" y2="105" stroke="#F5F0EB" stroke-width="0.8" opacity="0.5"/>
  <line x1="147" y1="116" x2="147" y2="122" stroke="#F5F0EB" stroke-width="0.8" opacity="0.5"/>
  <line x1="144" y1="119" x2="150" y2="119" stroke="#F5F0EB" stroke-width="0.8" opacity="0.5"/>
  <line x1="147" y1="130" x2="147" y2="136" stroke="#F5F0EB" stroke-width="0.8" opacity="0.5"/>
  <line x1="144" y1="133" x2="150" y2="133" stroke="#F5F0EB" stroke-width="0.8" opacity="0.5"/>
  <line x1="147" y1="144" x2="147" y2="150" stroke="#F5F0EB" stroke-width="0.8" opacity="0.5"/>
  <line x1="144" y1="147" x2="150" y2="147" stroke="#F5F0EB" stroke-width="0.8" opacity="0.5"/>
  <line x1="147" y1="158" x2="147" y2="164" stroke="#F5F0EB" stroke-width="0.8" opacity="0.5"/>
  <line x1="144" y1="161" x2="150" y2="161" stroke="#F5F0EB" stroke-width="0.8" opacity="0.5"/>
  <line x1="147" y1="172" x2="147" y2="178" stroke="#F5F0EB" stroke-width="0.8" opacity="0.5"/>
  <line x1="144" y1="175" x2="150" y2="175" stroke="#F5F0EB" stroke-width="0.8" opacity="0.5"/>
  <line x1="147" y1="186" x2="147" y2="192" stroke="#F5F0EB" stroke-width="0.8" opacity="0.5"/>
  <line x1="144" y1="189" x2="150" y2="189" stroke="#F5F0EB" stroke-width="0.8" opacity="0.5"/>
  <line x1="161" y1="4" x2="161" y2="10" stroke="#F5F0EB" stroke-width="0.8" opacity="0.5"/>
  <line x1="158" y1="7" x2="164" y2="7" stroke="#F5F0EB" stroke-width="0.8" opacity="0.5"/>
  <line x1="161" y1="18" x2="161" y2="24" stroke="#F5F0EB" stroke-width="0.8" opacity="0.5"/>
  <line x1="158" y1="21" x2="164" y2="21" stroke="#F5F0EB" stroke-width="0.8" opacity="0.5"/>
  <line x1="161" y1="32" x2="161" y2="38" stroke="#F5F0EB" stroke-width="0.8" opacity="0.5"/>
  <line x1="158" y1="35" x2="164" y2="35" stroke="#F5F0EB" stroke-width="0.8" opacity="0.5"/>
  <line x1="161" y1="46" x2="161" y2="52" stroke="#F5F0EB" stroke-width="0.8" opacity="0.5"/>
  <line x1="158" y1="49" x2="164" y2="49" stroke="#F5F0EB" stroke-width="0.8" opacity="0.5"/>
  <line x1="161" y1="60" x2="161" y2="66" stroke="#F5F0EB" stroke-width="0.8" opacity="0.5"/>
  <line x1="158" y1="63" x2="164" y2="63" stroke="#F5F0EB" stroke-width="0.8" opacity="0.5"/>
  <line x1="161" y1="74" x2="161" y2="80" stroke="#F5F0EB" stroke-width="0.8" opacity="0.5"/>
  <line x1="158" y1="77" x2="164" y2="77" stroke="#F5F0EB" stroke-width="0.8" opacity="0.5"/>
  <line x1="161" y1="88" x2="161" y2="94" stroke="#F5F0EB" stroke-width="0.8" opacity="0.5"/>
  <line x1="158" y1="91" x2="164" y2="91" stroke="#F5F0EB" stroke-width="0.8" opacity="0.5"/>
  <line x1="161" y1="102" x2="161" y2="108" stroke="#F5F0EB" stroke-width="0.8" opacity="0.5"/>
  <line x1="158" y1="105" x2="164" y2="105" stroke="#F5F0EB" stroke-width="0.8" opacity="0.5"/>
  <line x1="161" y1="116" x2="161" y2="122" stroke="#F5F0EB" stroke-width="0.8" opacity="0.5"/>
  <line x1="158" y1="119" x2="164" y2="119" stroke="#F5F0EB" stroke-width="0.8" opacity="0.5"/>
  <line x1="161" y1="130" x2="161" y2="136" stroke="#F5F0EB" stroke-width="0.8" opacity="0.5"/>
  <line x1="158" y1="133" x2="164" y2="133" stroke="#F5F0EB" stroke-width="0.8" opacity="0.5"/>
  <line x1="161" y1="144" x2="161" y2="150" stroke="#F5F0EB" stroke-width="0.8" opacity="0.5"/>
  <line x1="158" y1="147" x2="164" y2="147" stroke="#F5F0EB" stroke-width="0.8" opacity="0.5"/>
  <line x1="161" y1="158" x2="161" y2="164" stroke="#F5F0EB" stroke-width="0.8" opacity="0.5"/>
  <line x1="158" y1="161" x2="164" y2="161" stroke="#F5F0EB" stroke-width="0.8" opacity="0.5"/>
  <line x1="161" y1="172" x2="161" y2="178" stroke="#F5F0EB" stroke-width="0.8" opacity="0.5"/>
  <line x1="158" y1="175" x2="164" y2="175" stroke="#F5F0EB" stroke-width="0.8" opacity="0.5"/>
  <line x1="161" y1="186" x2="161" y2="192" stroke="#F5F0EB" stroke-width="0.8" opacity="0.5"/>
  <line x1="158" y1="189" x2="164" y2="189" stroke="#F5F0EB" stroke-width="0.8" opacity="0.5"/>
  <line x1="175" y1="4" x2="175" y2="10" stroke="#F5F0EB" stroke-width="0.8" opacity="0.5"/>
  <line x1="172" y1="7" x2="178" y2="7" stroke="#F5F0EB" stroke-width="0.8" opacity="0.5"/>
  <line x1="175" y1="18" x2="175" y2="24" stroke="#F5F0EB" stroke-width="0.8" opacity="0.5"/>
  <line x1="172" y1="21" x2="178" y2="21" stroke="#F5F0EB" stroke-width="0.8" opacity="0.5"/>
  <line x1="175" y1="32" x2="175" y2="38" stroke="#F5F0EB" stroke-width="0.8" opacity="0.5"/>
  <line x1="172" y1="35" x2="178" y2="35" stroke="#F5F0EB" stroke-width="0.8" opacity="0.5"/>
  <line x1="175" y1="46" x2="175" y2="52" stroke="#F5F0EB" stroke-width="0.8" opacity="0.5"/>
  <line x1="172" y1="49" x2="178" y2="49" stroke="#F5F0EB" stroke-width="0.8" opacity="0.5"/>
  <line x1="175" y1="60" x2="175" y2="66" stroke="#F5F0EB" stroke-width="0.8" opacity="0.5"/>
  <line x1="172" y1="63" x2="178" y2="63" stroke="#F5F0EB" stroke-width="0.8" opacity="0.5"/>
  <line x1="175" y1="74" x2="175" y2="80" stroke="#F5F0EB" stroke-width="0.8" opacity="0.5"/>
  <line x1="172" y1="77" x2="178" y2="77" stroke="#F5F0EB" stroke-width="0.8" opacity="0.5"/>
  <line x1="175" y1="88" x2="175" y2="94" stroke="#F5F0EB" stroke-width="0.8" opacity="0.5"/>
  <line x1="172" y1="91" x2="178" y2="91" stroke="#F5F0EB" stroke-width="0.8" opacity="0.5"/>
  <line x1="175" y1="102" x2="175" y2="108" stroke="#F5F0EB" stroke-width="0.8" opacity="0.5"/>
  <line x1="172" y1="105" x2="178" y2="105" stroke="#F5F0EB" stroke-width="0.8" opacity="0.5"/>
  <line x1="175" y1="116" x2="175" y2="122" stroke="#F5F0EB" stroke-width="0.8" opacity="0.5"/>
  <line x1="172" y1="119" x2="178" y2="119" stroke="#F5F0EB" stroke-width="0.8" opacity="0.5"/>
  <line x1="175" y1="130" x2="175" y2="136" stroke="#F5F0EB" stroke-width="0.8" opacity="0.5"/>
  <line x1="172" y1="133" x2="178" y2="133" stroke="#F5F0EB" stroke-width="0.8" opacity="0.5"/>
  <line x1="175" y1="144" x2="175" y2="150" stroke="#F5F0EB" stroke-width="0.8" opacity="0.5"/>
  <line x1="172" y1="147" x2="178" y2="147" stroke="#F5F0EB" stroke-width="0.8" opacity="0.5"/>
  <line x1="175" y1="158" x2="175" y2="164" stroke="#F5F0EB" stroke-width="0.8" opacity="0.5"/>
  <line x1="172" y1="161" x2="178" y2="161" stroke="#F5F0EB" stroke-width="0.8" opacity="0.5"/>
  <line x1="175" y1="172" x2="175" y2="178" stroke="#F5F0EB" stroke-width="0.8" opacity="0.5"/>
  <line x1="172" y1="175" x2="178" y2="175" stroke="#F5F0EB" stroke-width="0.8" opacity="0.5"/>
  <line x1="175" y1="186" x2="175" y2="192" stroke="#F5F0EB" stroke-width="0.8" opacity="0.5"/>
  <line x1="172" y1="189" x2="178" y2="189" stroke="#F5F0EB" stroke-width="0.8" opacity="0.5"/>
  <line x1="189" y1="4" x2="189" y2="10" stroke="#F5F0EB" stroke-width="0.8" opacity="0.5"/>
  <line x1="186" y1="7" x2="192" y2="7" stroke="#F5F0EB" stroke-width="0.8" opacity="0.5"/>
  <line x1="189" y1="18" x2="189" y2="24" stroke="#F5F0EB" stroke-width="0.8" opacity="0.5"/>
  <line x1="186" y1="21" x2="192" y2="21" stroke="#F5F0EB" stroke-width="0.8" opacity="0.5"/>
  <line x1="189" y1="32" x2="189" y2="38" stroke="#F5F0EB" stroke-width="0.8" opacity="0.5"/>
  <line x1="186" y1="35" x2="192" y2="35" stroke="#F5F0EB" stroke-width="0.8" opacity="0.5"/>
  <line x1="189" y1="46" x2="189" y2="52" stroke="#F5F0EB" stroke-width="0.8" opacity="0.5"/>
  <line x1="186" y1="49" x2="192" y2="49" stroke="#F5F0EB" stroke-width="0.8" opacity="0.5"/>
  <line x1="189" y1="60" x2="189" y2="66" stroke="#F5F0EB" stroke-width="0.8" opacity="0.5"/>
  <line x1="186" y1="63" x2="192" y2="63" stroke="#F5F0EB" stroke-width="0.8" opacity="0.5"/>
  <line x1="189" y1="74" x2="189" y2="80" stroke="#F5F0EB" stroke-width="0.8" opacity="0.5"/>
  <line x1="186" y1="77" x2="192" y2="77" stroke="#F5F0EB" stroke-width="0.8" opacity="0.5"/>
  <line x1="189" y1="88" x2="189" y2="94" stroke="#F5F0EB" stroke-width="0.8" opacity="0.5"/>
  <line x1="186" y1="91" x2="192" y2="91" stroke="#F5F0EB" stroke-width="0.8" opacity="0.5"/>
  <line x1="189" y1="102" x2="189" y2="108" stroke="#F5F0EB" stroke-width="0.8" opacity="0.5"/>
  <line x1="186" y1="105" x2="192" y2="105" stroke="#F5F0EB" stroke-width="0.8" opacity="0.5"/>
  <line x1="189" y1="116" x2="189" y2="122" stroke="#F5F0EB" stroke-width="0.8" opacity="0.5"/>
  <line x1="186" y1="119" x2="192" y2="119" stroke="#F5F0EB" stroke-width="0.8" opacity="0.5"/>
  <line x1="189" y1="130" x2="189" y2="136" stroke="#F5F0EB" stroke-width="0.8" opacity="0.5"/>
  <line x1="186" y1="133" x2="192" y2="133" stroke="#F5F0EB" stroke-width="0.8" opacity="0.5"/>
  <line x1="189" y1="144" x2="189" y2="150" stroke="#F5F0EB" stroke-width="0.8" opacity="0.5"/>
  <line x1="186" y1="147" x2="192" y2="147" stroke="#F5F0EB" stroke-width="0.8" opacity="0.5"/>
  <line x1="189" y1="158" x2="189" y2="164" stroke="#F5F0EB" stroke-width="0.8" opacity="0.5"/>
  <line x1="186" y1="161" x2="192" y2="161" stroke="#F5F0EB" stroke-width="0.8" opacity="0.5"/>
  <line x1="189" y1="172" x2="189" y2="178" stroke="#F5F0EB" stroke-width="0.8" opacity="0.5"/>
  <line x1="186" y1="175" x2="192" y2="175" stroke="#F5F0EB" stroke-width="0.8" opacity="0.5"/>
  <line x1="189" y1="186" x2="189" y2="192" stroke="#F5F0EB" stroke-width="0.8" opacity="0.5"/>
  <line x1="186" y1="189" x2="192" y2="189" stroke="#F5F0EB" stroke-width="0.8" opacity="0.5"/>
</svg>